<svg xmlns="http://www.w3.org/2000/svg" width="135" height="38" viewBox="0 0 135 38" fill="none"><path fill-rule="evenodd" clip-rule="evenodd" d="M17.4167 36.4167C27.0356 36.4167 34.8333 28.619 34.8333 19C34.8333 9.38109 27.0356 1.58337 17.4167 1.58337C7.79769 1.58337 0 9.38109 0 19C0 28.619 7.79769 36.4167 17.4167 36.4167ZM22.8501 9.69679C23.1145 8.75735 22.2029 8.20182 21.3703 8.79501L9.74734 17.0751C8.84437 17.7184 8.9864 19 9.96069 19H13.0213V18.9763H18.9863L14.126 20.6913L11.9833 28.3033C11.7188 29.2428 12.6304 29.7983 13.4631 29.2051L25.086 20.925C25.989 20.2817 25.8469 19 24.8727 19H20.2313L22.8501 9.69679Z" fill="#155EEF"></path><path d="M43.8425 26.8447V24.0897H46.0275V12.9747H43.8425V10.2197H52.3925C53.4058 10.2197 54.2846 10.3939 55.0287 10.7422C55.7887 11.0747 56.3746 11.5576 56.7863 12.191C57.2138 12.8085 57.4275 13.5526 57.4275 14.4235V14.661C57.4275 15.421 57.285 16.0464 57 16.5372C56.715 17.0122 56.3746 17.3843 55.9788 17.6535C55.5988 17.9068 55.2346 18.0889 54.8862 18.1997V18.6272C55.2346 18.7222 55.6146 18.9043 56.0262 19.1735C56.4379 19.4268 56.7863 19.7989 57.0713 20.2897C57.3721 20.7805 57.5225 21.4218 57.5225 22.2135V22.451C57.5225 23.3693 57.3088 24.161 56.8813 24.826C56.4537 25.4751 55.86 25.9739 55.1 26.3222C54.3558 26.6705 53.485 26.8447 52.4875 26.8447H43.8425ZM49.1625 23.9947H52.1075C52.7883 23.9947 53.3346 23.8285 53.7463 23.496C54.1737 23.1635 54.3875 22.6885 54.3875 22.071V21.8335C54.3875 21.216 54.1817 20.741 53.77 20.4085C53.3583 20.076 52.8042 19.9097 52.1075 19.9097H49.1625V23.9947ZM49.1625 17.0597H52.06C52.7092 17.0597 53.2396 16.8935 53.6512 16.561C54.0787 16.2285 54.2925 15.7693 54.2925 15.1835V14.946C54.2925 14.3443 54.0867 13.8851 53.675 13.5685C53.2633 13.236 52.725 13.0697 52.06 13.0697H49.1625V17.0597Z" fill="#1F2327" fill-opacity="0.3"></path><path d="M64.6015 27.1772C63.4298 27.1772 62.3769 26.9397 61.4427 26.4647C60.5086 25.9897 59.7723 25.301 59.234 24.3985C58.6957 23.496 58.4265 22.4114 58.4265 21.1447V20.7647C58.4265 19.498 58.6957 18.4135 59.234 17.511C59.7723 16.6085 60.5086 15.9197 61.4427 15.4447C62.3769 14.9697 63.4298 14.7322 64.6015 14.7322C65.7731 14.7322 66.8261 14.9697 67.7602 15.4447C68.6944 15.9197 69.4306 16.6085 69.969 17.511C70.5073 18.4135 70.7765 19.498 70.7765 20.7647V21.1447C70.7765 22.4114 70.5073 23.496 69.969 24.3985C69.4306 25.301 68.6944 25.9897 67.7602 26.4647C66.8261 26.9397 65.7731 27.1772 64.6015 27.1772ZM64.6015 24.5172C65.5198 24.5172 66.2798 24.2243 66.8815 23.6385C67.4832 23.0368 67.784 22.1818 67.784 21.0735V20.836C67.784 19.7276 67.4832 18.8805 66.8815 18.2947C66.2957 17.693 65.5357 17.3922 64.6015 17.3922C63.6831 17.3922 62.9232 17.693 62.3215 18.2947C61.7198 18.8805 61.419 19.7276 61.419 20.836V21.0735C61.419 22.1818 61.7198 23.0368 62.3215 23.6385C62.9232 24.2243 63.6831 24.5172 64.6015 24.5172Z" fill="#1F2327" fill-opacity="0.3"></path><path d="M72.3512 26.8447V10.2197H75.3437V26.8447H72.3512Z" fill="#1F2327" fill-opacity="0.3"></path><path d="M81.9848 26.8447C81.209 26.8447 80.5756 26.6072 80.0848 26.1322C79.6098 25.6414 79.3723 24.9922 79.3723 24.1847V17.5347H76.4273V15.0647H79.3723V11.4072H82.3648V15.0647H85.5948V17.5347H82.3648V23.6622C82.3648 24.1372 82.5865 24.3747 83.0298 24.3747H85.3098V26.8447H81.9848Z" fill="#1F2327" fill-opacity="0.3"></path><path d="M92.0086 27.1772C90.4728 27.1772 89.214 26.8447 88.2324 26.1797C87.2507 25.5147 86.6569 24.5647 86.4511 23.3297L89.2061 22.6172C89.3169 23.1714 89.499 23.6068 89.7524 23.9235C90.0215 24.2401 90.3461 24.4697 90.7261 24.6122C91.1219 24.7389 91.5494 24.8022 92.0086 24.8022C92.7053 24.8022 93.2199 24.6835 93.5524 24.446C93.8849 24.1926 94.0511 23.8839 94.0511 23.5197C94.0511 23.1555 93.8928 22.8785 93.5761 22.6885C93.2594 22.4826 92.7528 22.3164 92.0561 22.1897L91.3911 22.071C90.5678 21.9126 89.8157 21.6989 89.1349 21.4297C88.454 21.1447 87.9078 20.7568 87.4961 20.266C87.0844 19.7751 86.8786 19.1418 86.8786 18.366C86.8786 17.1943 87.3061 16.2997 88.1611 15.6822C89.0161 15.0489 90.1403 14.7322 91.5336 14.7322C92.8478 14.7322 93.9403 15.0251 94.8111 15.611C95.6819 16.1968 96.252 16.9647 96.5211 17.9147L93.7424 18.7697C93.6157 18.168 93.3544 17.7405 92.9586 17.4872C92.5786 17.2339 92.1036 17.1072 91.5336 17.1072C90.9636 17.1072 90.5282 17.2101 90.2274 17.416C89.9265 17.606 89.7761 17.8751 89.7761 18.2235C89.7761 18.6035 89.9344 18.8885 90.2511 19.0785C90.5678 19.2526 90.9953 19.3872 91.5336 19.4822L92.1986 19.601C93.0853 19.7593 93.8849 19.973 94.5974 20.2422C95.3257 20.4955 95.8957 20.8676 96.3074 21.3585C96.7349 21.8335 96.9486 22.4826 96.9486 23.306C96.9486 24.541 96.4974 25.4989 95.5949 26.1797C94.7082 26.8447 93.5128 27.1772 92.0086 27.1772Z" fill="#1F2327" fill-opacity="0.3"></path><path d="M98.3834 26.8447V10.2197H101.376V16.5135H101.803C101.93 16.2601 102.128 16.0068 102.397 15.7535C102.666 15.5001 103.023 15.2943 103.466 15.136C103.925 14.9618 104.503 14.8747 105.2 14.8747C106.118 14.8747 106.918 15.0885 107.598 15.516C108.295 15.9276 108.833 16.5055 109.213 17.2497C109.593 17.978 109.783 18.833 109.783 19.8147V26.8447H106.791V20.0522C106.791 19.1655 106.569 18.5005 106.126 18.0572C105.698 17.6139 105.081 17.3922 104.273 17.3922C103.355 17.3922 102.643 17.701 102.136 18.3185C101.629 18.9201 101.376 19.7672 101.376 20.8597V26.8447H98.3834Z" fill="#1F2327" fill-opacity="0.3"></path><path d="M111.831 26.8447V15.0647H114.823V26.8447H111.831ZM113.327 13.6872C112.789 13.6872 112.33 13.513 111.95 13.1647C111.586 12.8164 111.403 12.3572 111.403 11.7872C111.403 11.2172 111.586 10.758 111.95 10.4097C112.33 10.0614 112.789 9.88721 113.327 9.88721C113.881 9.88721 114.341 10.0614 114.705 10.4097C115.069 10.758 115.251 11.2172 115.251 11.7872C115.251 12.3572 115.069 12.8164 114.705 13.1647C114.341 13.513 113.881 13.6872 113.327 13.6872Z" fill="#1F2327" fill-opacity="0.3"></path><path d="M118.9 26.8447V17.5347H115.907V15.0647H118.9V12.8797C118.9 12.0722 119.137 11.431 119.612 10.956C120.103 10.4651 120.736 10.2197 121.512 10.2197H124.6V12.6897H122.557C122.114 12.6897 121.892 12.9272 121.892 13.4022V15.0647H124.98V17.5347H121.892V26.8447H118.9Z" fill="#1F2327" fill-opacity="0.3"></path><path d="M130.389 26.8447C129.614 26.8447 128.98 26.6072 128.489 26.1322C128.014 25.6414 127.777 24.9922 127.777 24.1847V17.5347H124.832V15.0647H127.777V11.4072H130.769V15.0647H133.999V17.5347H130.769V23.6622C130.769 24.1372 130.991 24.3747 131.434 24.3747H133.714V26.8447H130.389Z" fill="#1F2327" fill-opacity="0.3"></path></svg>