<svg xmlns="http://www.w3.org/2000/svg" width="133" height="38" viewBox="0 0 133 38" fill="none"><path fill-rule="evenodd" clip-rule="evenodd" d="M16.231 2.72964C15.8312 2.64741 15.4188 2.64741 15.019 2.72964C14.5568 2.8247 14.1437 3.05607 13.8153 3.24001L13.7258 3.29002L2.59536 9.47359C2.56459 9.49069 2.53288 9.50815 2.50039 9.52605C2.15274 9.71753 1.71562 9.95829 1.37994 10.3226C1.08972 10.6375 0.870091 11.0108 0.735737 11.4174C0.580336 11.8877 0.582155 12.3868 0.5836 12.7837C0.583736 12.8207 0.583867 12.8569 0.583867 12.8921V25.1012C0.583867 25.1364 0.583736 25.1726 0.5836 25.2097C0.582155 25.6066 0.580336 26.1056 0.735737 26.5759C0.870092 26.9826 1.08972 27.3558 1.37994 27.6708C1.71562 28.035 2.15274 28.2758 2.50039 28.4673C2.53288 28.4852 2.56459 28.5026 2.59536 28.5197L13.7258 34.7033L13.8153 34.7533C14.1437 34.9373 14.5568 35.1686 15.019 35.2637C15.4188 35.3459 15.8312 35.3459 16.231 35.2637C16.6932 35.1686 17.1063 34.9373 17.4347 34.7533L17.5242 34.7033L28.6546 28.5197C28.6682 28.5122 28.682 28.5046 28.6959 28.4968C28.7136 28.4871 28.7314 28.4773 28.7496 28.4673C29.0972 28.2758 29.5343 28.035 29.87 27.6708C30.1602 27.3558 30.3799 26.9826 30.5142 26.5759C30.6696 26.1056 30.6678 25.6066 30.6664 25.2097C30.6662 25.1726 30.6661 25.1364 30.6661 25.1012V12.8921C30.6661 12.8569 30.6662 12.8208 30.6664 12.7837C30.6678 12.3868 30.6696 11.8877 30.5142 11.4174C30.3799 11.0108 30.1602 10.6375 29.87 10.3226C29.5343 9.95829 29.0972 9.71752 28.7496 9.52604L28.7483 9.52536C28.7163 9.50771 28.685 9.49047 28.6546 9.47359L17.5242 3.29002L17.4347 3.24001C17.1062 3.05607 16.6932 2.8247 16.231 2.72964ZM15.1867 5.91968C15.4146 5.79305 15.531 5.72906 15.6178 5.6872L15.625 5.68376L15.6322 5.6872C15.719 5.72906 15.8353 5.79305 16.0633 5.91968L26.0648 11.4761L15.6249 17.276L5.18515 11.4761L15.1867 5.91968ZM3.59209 14.0323L14.1208 19.8816L14.1209 31.4815L4.05628 25.8901C3.81569 25.7564 3.69286 25.6875 3.60668 25.6326L3.5994 25.6279L3.59886 25.6193C3.59272 25.5173 3.59209 25.3764 3.59209 25.1012V14.0323Z" fill="#1F2327"></path><path d="M44.3554 24.0233H49.1434V26.8448H40.7003V11.8395H44.3554V24.0233Z" fill="#1F2327" fill-opacity="0.3"></path><path d="M52.5113 13.6778C51.8701 13.6778 51.3428 13.4925 50.9296 13.122C50.5306 12.7373 50.3311 12.267 50.3311 11.7113C50.3311 11.1413 50.5306 10.671 50.9296 10.3005C51.3428 9.91576 51.8701 9.72339 52.5113 9.72339C53.1383 9.72339 53.6513 9.91576 54.0503 10.3005C54.4636 10.671 54.6702 11.1413 54.6702 11.7113C54.6702 12.267 54.4636 12.7373 54.0503 13.122C53.6513 13.4925 53.1383 13.6778 52.5113 13.6778ZM54.3282 14.9175V26.8448H50.6731V14.9175H54.3282Z" fill="#1F2327" fill-opacity="0.3"></path><path d="M61.2948 14.7465C62.1355 14.7465 62.8694 14.9175 63.4964 15.2595C64.1377 15.6015 64.6293 16.0504 64.9713 16.6061V14.9175H68.6264V26.8234C68.6264 27.9206 68.4055 28.911 67.9638 29.7945C67.5363 30.6923 66.8737 31.4048 65.9759 31.932C65.0924 32.4593 63.988 32.7229 62.6628 32.7229C60.8958 32.7229 59.4637 32.3025 58.3664 31.4618C57.2692 30.6353 56.6422 29.5095 56.4854 28.0845H60.0978C60.2118 28.5405 60.4825 28.8968 60.91 29.1533C61.3375 29.424 61.8648 29.5594 62.4918 29.5594C63.247 29.5594 63.8455 29.3385 64.2873 28.8968C64.7433 28.4693 64.9713 27.7781 64.9713 26.8234V25.1348C64.615 25.6905 64.1234 26.1465 63.4964 26.5028C62.8694 26.8448 62.1355 27.0158 61.2948 27.0158C60.3115 27.0158 59.4209 26.7664 58.6229 26.2676C57.8249 25.7546 57.1908 25.035 56.7205 24.1088C56.2645 23.1683 56.0365 22.0853 56.0365 20.8598C56.0365 19.6343 56.2645 18.5584 56.7205 17.6321C57.1908 16.7059 57.8249 15.9934 58.6229 15.4946C59.4209 14.9959 60.3115 14.7465 61.2948 14.7465ZM64.9713 20.8811C64.9713 19.9691 64.7148 19.2495 64.2018 18.7223C63.703 18.195 63.0903 17.9314 62.3635 17.9314C61.6368 17.9314 61.0169 18.195 60.5039 18.7223C60.0052 19.2353 59.7558 19.9478 59.7558 20.8598C59.7558 21.7718 60.0052 22.4985 60.5039 23.04C61.0169 23.5673 61.6368 23.8309 62.3635 23.8309C63.0903 23.8309 63.703 23.5673 64.2018 23.04C64.7148 22.5128 64.9713 21.7931 64.9713 20.8811Z" fill="#1F2327" fill-opacity="0.3"></path><path d="M78.3886 14.7893C79.7566 14.7893 80.8539 15.2453 81.6804 16.1573C82.5069 17.055 82.9201 18.2948 82.9201 19.8765V26.8448H79.2864V20.3681C79.2864 19.5701 79.0797 18.9503 78.6665 18.5085C78.2532 18.0668 77.6975 17.8459 76.9992 17.8459C76.301 17.8459 75.7452 18.0668 75.332 18.5085C74.9187 18.9503 74.7121 19.5701 74.7121 20.3681V26.8448H71.057V11.0273H74.7121V16.5206C75.0826 15.9934 75.5885 15.573 76.2297 15.2595C76.871 14.946 77.5906 14.7893 78.3886 14.7893Z" fill="#1F2327" fill-opacity="0.3"></path><path d="M91.8939 23.7454V26.8448H90.0343C88.7091 26.8448 87.6759 26.5241 86.9349 25.8829C86.1939 25.2274 85.8234 24.1658 85.8234 22.698V17.9528H84.3699V14.9175H85.8234V12.0105H89.4786V14.9175H91.8726V17.9528H89.4786V22.7408C89.4786 23.097 89.5641 23.3535 89.7351 23.5103C89.9061 23.667 90.1911 23.7454 90.5901 23.7454H91.8939Z" fill="#1F2327" fill-opacity="0.3"></path><path d="M97.3713 16.6061C97.7133 16.0504 98.2049 15.6015 98.8462 15.2595C99.4874 14.9175 100.221 14.7465 101.048 14.7465C102.031 14.7465 102.922 14.9959 103.72 15.4946C104.518 15.9934 105.145 16.7059 105.601 17.6321C106.071 18.5584 106.306 19.6343 106.306 20.8598C106.306 22.0853 106.071 23.1683 105.601 24.1088C105.145 25.035 104.518 25.7546 103.72 26.2676C102.922 26.7664 102.031 27.0158 101.048 27.0158C100.207 27.0158 99.4732 26.8519 98.8462 26.5241C98.2192 26.1821 97.7275 25.7333 97.3713 25.1775V26.8448H93.7162V11.0273H97.3713V16.6061ZM102.587 20.8598C102.587 19.9478 102.33 19.2353 101.817 18.7223C101.319 18.195 100.699 17.9314 99.9577 17.9314C99.2309 17.9314 98.611 18.195 98.098 18.7223C97.5993 19.2495 97.3499 19.9691 97.3499 20.8811C97.3499 21.7931 97.5993 22.5128 98.098 23.04C98.611 23.5673 99.2309 23.8309 99.9577 23.8309C100.684 23.8309 101.304 23.5673 101.817 23.04C102.33 22.4985 102.587 21.7718 102.587 20.8598Z" fill="#1F2327" fill-opacity="0.3"></path><path d="M113.439 27.0158C112.271 27.0158 111.216 26.7664 110.276 26.2676C109.349 25.7689 108.615 25.0564 108.074 24.1301C107.547 23.2039 107.283 22.1209 107.283 20.8811C107.283 19.6556 107.554 18.5798 108.095 17.6535C108.637 16.713 109.378 15.9934 110.318 15.4946C111.259 14.9959 112.313 14.7465 113.482 14.7465C114.65 14.7465 115.705 14.9959 116.645 15.4946C117.586 15.9934 118.327 16.713 118.868 17.6535C119.41 18.5798 119.681 19.6556 119.681 20.8811C119.681 22.1066 119.403 23.1896 118.847 24.1301C118.305 25.0564 117.557 25.7689 116.603 26.2676C115.662 26.7664 114.608 27.0158 113.439 27.0158ZM113.439 23.8523C114.137 23.8523 114.729 23.5958 115.213 23.0828C115.712 22.5698 115.961 21.8359 115.961 20.8811C115.961 19.9264 115.719 19.1925 115.235 18.6795C114.764 18.1665 114.18 17.91 113.482 17.91C112.769 17.91 112.178 18.1665 111.708 18.6795C111.237 19.1783 111.002 19.9121 111.002 20.8811C111.002 21.8359 111.23 22.5698 111.686 23.0828C112.157 23.5958 112.741 23.8523 113.439 23.8523Z" fill="#1F2327" fill-opacity="0.3"></path><path d="M128.46 26.8448L126.173 23.5316L124.249 26.8448H120.294L124.227 20.7529L120.188 14.9175H124.292L126.579 18.2093L128.502 14.9175H132.457L128.46 20.9239L132.564 26.8448H128.46Z" fill="#1F2327" fill-opacity="0.3"></path></svg>