<svg xmlns="http://www.w3.org/2000/svg" width="132" height="38" viewBox="0 0 132 38" fill="none"><circle cx="17.9583" cy="19.1979" r="15.9167" stroke="#6927DA" stroke-width="3"></circle><path d="M24.175 25.4146C20.9305 28.6591 17.2656 30.7654 14.0223 31.5994C10.7412 32.4431 8.18611 31.9353 6.70354 30.4528C5.22097 28.9702 4.7132 26.4151 5.5569 23.134C6.39089 19.8907 8.49723 16.2258 11.7417 12.9813C14.9861 9.73688 18.6511 7.63054 21.8944 6.79655C25.1754 5.95285 27.7305 6.46062 29.2131 7.94319C30.6957 9.42577 31.2034 11.9809 30.3598 15.2619C29.5258 18.5052 27.4194 22.1702 24.175 25.4146Z" stroke="#6927DA" stroke-width="3"></path><path d="M24.1748 12.9813C27.4193 16.2257 29.5256 19.8907 30.3596 23.134C31.2033 26.415 30.6955 28.9701 29.2129 30.4527C27.7304 31.9353 25.1753 32.443 21.8942 31.5994C18.6509 30.7654 14.986 28.659 11.7415 25.4146C8.49708 22.1701 6.39074 18.5052 5.55674 15.2619C4.71304 11.9808 5.22081 9.42572 6.70339 7.94314C8.18596 6.46057 10.7411 5.9528 14.0221 6.7965C17.2654 7.63049 20.9304 9.73683 24.1748 12.9813Z" stroke="#6927DA" stroke-width="3"></path><path d="M50.2979 27.1066C54.0266 27.1066 56.5441 25.1591 56.5441 22.0479C56.5441 15.4691 47.8041 18.2716 47.8041 14.8041C47.8041 13.8304 48.6829 13.1654 50.0841 13.1654C51.6754 13.1654 52.6729 14.0204 52.7916 15.3266H56.1879C56.0929 12.1679 53.6704 10.1016 50.0841 10.1016C46.7116 10.1016 44.3366 12.0491 44.3366 14.8041C44.3366 21.3354 52.9579 18.8416 52.9579 22.0954C52.9579 23.3541 51.8891 24.0191 50.2979 24.0191C48.5404 24.0191 47.4241 22.9504 47.2816 21.2641H43.8616C44.0041 24.8029 46.5216 27.1066 50.2979 27.1066Z" fill="#1F2327" fill-opacity="0.3"></path><path d="M57.3518 31.7616H60.6531V25.8479C61.2943 26.6554 62.4581 27.1066 63.8118 27.1066C67.2556 27.1066 69.5831 24.6604 69.5831 20.9316C69.5831 17.2029 67.4456 14.7566 64.0968 14.7566C62.5531 14.7566 61.3656 15.3266 60.6531 16.2529V14.9466H57.3518V31.7616ZM63.4081 24.2566C61.6268 24.2566 60.4631 22.9266 60.4631 20.9316C60.4631 18.9129 61.6268 17.5829 63.4081 17.5829C65.1418 17.5829 66.3293 18.9129 66.3293 20.9316C66.3293 22.9266 65.1418 24.2566 63.4081 24.2566Z" fill="#1F2327" fill-opacity="0.3"></path><path d="M70.3818 26.9166H73.6831V20.3616C73.6831 18.8179 74.7043 17.7016 76.1531 17.7016C77.5306 17.7016 78.4806 18.7466 78.4806 20.1954V26.9166H81.7818V19.4591C81.7818 16.7041 80.0243 14.7566 77.3406 14.7566C75.6781 14.7566 74.3718 15.4454 73.6831 16.6091V9.74536H70.3818V26.9166Z" fill="#1F2327" fill-opacity="0.3"></path><path d="M91.0169 22.8554C90.7556 23.8766 89.8769 24.3991 88.5469 24.3991C86.8844 24.3991 85.8156 23.3541 85.5781 21.6679H94.1756C94.1994 21.4066 94.2231 21.0504 94.2231 20.5991C94.2231 17.8679 92.5369 14.7566 88.3094 14.7566C84.2481 14.7566 82.3956 17.8679 82.3956 20.9079C82.3956 23.9241 84.4856 27.1066 88.5469 27.1066C91.4919 27.1066 93.7719 25.4441 94.2469 22.8554H91.0169ZM88.3094 17.1791C89.9006 17.1791 90.8269 18.2479 90.9219 19.5779H85.6256C85.9106 17.9154 86.8131 17.1791 88.3094 17.1791Z" fill="#1F2327" fill-opacity="0.3"></path><path d="M102.881 17.7016V14.9466H101.178C99.7291 14.9466 98.8266 15.4454 98.1853 16.9416V14.9466H94.8603V26.9166H98.1853V21.0979C98.1853 19.0554 98.9216 17.7016 100.56 17.7016H102.881Z" fill="#1F2327" fill-opacity="0.3"></path><path d="M114.281 14.9466H110.956V21.5016C110.956 23.0216 109.935 24.1616 108.486 24.1616C107.132 24.1616 106.182 23.1166 106.182 21.6679V14.9466H102.881V22.4041C102.881 25.1354 104.639 27.1066 107.322 27.1066C108.961 27.1066 110.291 26.3941 110.956 25.2541V26.9166H114.281V14.9466Z" fill="#1F2327" fill-opacity="0.3"></path><path d="M115.706 26.9166H119.008V9.74536H115.706V26.9166Z" fill="#1F2327" fill-opacity="0.3"></path><path d="M128.432 22.8554C128.171 23.8766 127.292 24.3991 125.962 24.3991C124.3 24.3991 123.231 23.3541 122.994 21.6679H131.591C131.615 21.4066 131.639 21.0504 131.639 20.5991C131.639 17.8679 129.952 14.7566 125.725 14.7566C121.664 14.7566 119.811 17.8679 119.811 20.9079C119.811 23.9241 121.901 27.1066 125.962 27.1066C128.907 27.1066 131.187 25.4441 131.662 22.8554H128.432ZM125.725 17.1791C127.316 17.1791 128.242 18.2479 128.337 19.5779H123.041C123.326 17.9154 124.229 17.1791 125.725 17.1791Z" fill="#1F2327" fill-opacity="0.3"></path></svg>