<svg xmlns="http://www.w3.org/2000/svg" width="157" height="38" viewBox="0 0 157 38" fill="none"><path d="M25.0478 1.58337H11.702L0.958252 12.3271V25.6729L11.702 36.4167H25.0478L35.7916 25.6729V12.3271L25.0478 1.58337ZM13.5486 25.8408L6.6659 18.9581L13.5486 12.0753C16.1506 9.47333 20.4314 9.47333 23.0334 12.0753L29.9161 18.9581L23.0334 25.8408C20.4314 28.4428 16.2346 28.4428 13.5486 25.8408Z" fill="#444CE7"></path><path d="M51.1024 27.1066C53.2399 27.1066 54.9974 26.0141 55.5436 24.3754V26.9166H58.7024V20.5041C58.7024 19.0554 57.5624 17.8204 56.0186 17.8204H51.5061V20.5041H54.7124C55.1161 20.5041 55.3774 20.7654 55.3774 21.1691C55.3774 22.7129 53.3349 24.2091 51.2686 24.2091C48.5136 24.2091 46.3286 22.0479 46.3286 18.6041C46.3286 15.1604 48.5136 13.1654 51.3399 13.1654C53.4774 13.1654 54.9499 14.3291 55.2111 16.1104H58.7499C58.5361 12.5479 55.5436 10.1016 51.3636 10.1016C46.9699 10.1016 42.9324 12.9279 42.9324 18.6041C42.9324 24.2804 46.8511 27.1066 51.1024 27.1066Z" fill="#1F2327"></path><path d="M60.0583 26.9166H63.3596V9.74536H60.0583V26.9166Z" fill="#1F2327"></path><path d="M70.4807 27.1066C74.162 27.1066 76.7982 24.4941 76.7982 20.9316C76.7982 17.3691 74.162 14.7566 70.4807 14.7566C66.7995 14.7566 64.1632 17.3691 64.1632 20.9316C64.1632 24.4941 66.7995 27.1066 70.4807 27.1066ZM70.4807 24.2566C68.6995 24.2566 67.4882 22.9029 67.4882 20.9316C67.4882 18.9366 68.6995 17.5829 70.4807 17.5829C72.262 17.5829 73.4732 18.9366 73.4732 20.9316C73.4732 22.9029 72.262 24.2566 70.4807 24.2566Z" fill="#1F2327"></path><path d="M84.1852 27.1066C87.7239 27.1066 89.8377 24.6604 89.8377 20.9316C89.8377 17.2029 87.7239 14.7566 84.2327 14.7566C82.7364 14.7566 81.5727 15.3266 80.9077 16.2054V9.74536H77.6064V26.9166H80.9077V25.6104C81.5727 26.5366 82.8077 27.1066 84.1852 27.1066ZM83.6627 24.2566C81.8814 24.2566 80.7177 22.9266 80.7177 20.9316C80.7177 18.9129 81.8814 17.5829 83.6627 17.5829C85.3964 17.5829 86.5839 18.9129 86.5839 20.9316C86.5839 22.9266 85.3964 24.2566 83.6627 24.2566Z" fill="#1F2327"></path><path d="M95.3638 14.7566C92.0863 14.7566 90.1388 16.6804 89.9963 19.0791H92.9413C92.9888 18.0816 93.7251 17.1791 95.1738 17.1791C96.5276 17.1791 97.3113 17.8679 97.3113 18.8654C97.3113 19.3641 97.0026 19.7441 96.4088 19.7441H94.3901C91.7776 19.7441 90.0201 21.1691 90.0201 23.5204C90.0201 25.5629 91.6113 27.1066 93.9388 27.1066C95.5776 27.1066 96.9076 26.3704 97.3113 25.2541V26.9166H100.589V19.2216C100.589 16.5141 98.3801 14.7566 95.3638 14.7566ZM94.7701 24.7079C93.8438 24.7079 93.1788 24.1616 93.1788 23.3779C93.1788 22.4516 93.8913 21.8341 94.8888 21.8341H97.3113V22.0004C97.3113 23.5204 96.3851 24.7079 94.7701 24.7079Z" fill="#1F2327"></path><path d="M101.857 26.9166H105.159V9.74536H101.857V26.9166Z" fill="#1F2327"></path><path d="M106.912 26.9166H113.705C117.22 26.9166 119.642 25.1116 119.642 21.9529C119.642 19.7679 118.36 18.4379 116.84 17.8441C117.814 17.3216 118.787 16.1341 118.787 14.5666C118.787 11.7879 116.531 10.2916 113.515 10.2916H106.912V26.9166ZM110.427 16.6329V13.1179H113.182C114.774 13.1179 115.486 13.7591 115.486 14.8754C115.486 15.9916 114.774 16.6329 113.254 16.6329H110.427ZM110.427 23.8291V19.6491H113.396C115.367 19.6491 116.246 20.4091 116.246 21.7629C116.246 23.1166 115.367 23.8291 113.396 23.8291H110.427Z" fill="#1F2327"></path><path d="M125.385 14.7566C122.108 14.7566 120.16 16.6804 120.018 19.0791H122.963C123.01 18.0816 123.747 17.1791 125.195 17.1791C126.549 17.1791 127.333 17.8679 127.333 18.8654C127.333 19.3641 127.024 19.7441 126.43 19.7441H124.412C121.799 19.7441 120.042 21.1691 120.042 23.5204C120.042 25.5629 121.633 27.1066 123.96 27.1066C125.599 27.1066 126.929 26.3704 127.333 25.2541V26.9166H130.61V19.2216C130.61 16.5141 128.402 14.7566 125.385 14.7566ZM124.792 24.7079C123.865 24.7079 123.2 24.1616 123.2 23.3779C123.2 22.4516 123.913 21.8341 124.91 21.8341H127.333V22.0004C127.333 23.5204 126.407 24.7079 124.792 24.7079Z" fill="#1F2327"></path><path d="M131.689 26.9166H135.014V20.3616C135.014 18.8179 136.035 17.7016 137.484 17.7016C138.861 17.7016 139.788 18.7466 139.788 20.1954V26.9166H143.113V19.4591C143.113 16.7041 141.355 14.7566 138.648 14.7566C137.009 14.7566 135.679 15.4454 135.014 16.6091V14.9466H131.689V26.9166Z" fill="#1F2327"></path><path d="M152.589 26.9166H156.579L151.425 19.6491L156.199 14.9466H152.019L147.863 19.0316V9.74536H144.538V26.9166H147.863V23.1641L149.193 21.8579L152.589 26.9166Z" fill="#1F2327"></path></svg>