<svg xmlns="http://www.w3.org/2000/svg" width="145" height="38" viewBox="0 0 145 38" fill="none"><g clip-path="url(#clip0_6242_1013)"><path d="M22.5048 3.26303L19.1634 2.36768L16.3475 12.8768L13.8053 3.38909L10.4637 4.28444L13.2105 14.5352L6.36899 7.69376L3.92285 10.1399L11.4271 17.6442L2.08175 15.1401L1.1864 18.4816L11.3973 21.2176C11.2804 20.7134 11.2186 20.188 11.2186 19.6481C11.2186 15.827 14.3162 12.7294 18.1373 12.7294C21.9585 12.7294 25.0561 15.827 25.0561 19.6481C25.0561 20.1845 24.995 20.7066 24.8795 21.2079L34.1594 23.6944L35.0547 20.353L24.8032 17.606L34.1491 15.1018L33.2537 11.7603L23.0026 14.5071L29.8441 7.66567L27.3979 5.21953L19.9978 12.6197L22.5048 3.26303Z" fill="#FF4405"></path><path d="M24.8698 21.2468C24.5833 22.458 23.9785 23.5461 23.1486 24.4178L29.8714 31.1408L32.3176 28.6946L24.8698 21.2468Z" fill="#FF4405"></path><path d="M23.0807 24.4881C22.2408 25.346 21.1794 25.9861 19.9891 26.316L22.4354 35.4458L25.7769 34.5504L23.0807 24.4881Z" fill="#FF4405"></path><path d="M19.8643 26.3494C19.3121 26.4914 18.7333 26.5668 18.1368 26.5668C17.4977 26.5668 16.8788 26.4802 16.2914 26.318L13.8428 35.4561L17.1843 36.3513L19.8643 26.3494Z" fill="#FF4405"></path><path d="M16.1732 26.2843C15.0011 25.938 13.9586 25.2897 13.1358 24.4294L6.39644 31.1688L8.84258 33.6149L16.1732 26.2843Z" fill="#FF4405"></path><path d="M13.0803 24.3698C12.2716 23.5041 11.6826 22.4305 11.4023 21.238L2.0921 23.7327L2.98745 27.0742L13.0803 24.3698Z" fill="#FF4405"></path></g><path d="M55.1616 10.2197V22.261L47.4428 10.2197H44.3553V26.8447H47.4428V14.8985L55.1616 26.8447H58.2491V10.2197H55.1616Z" fill="#1F2327" fill-opacity="0.3"></path><path d="M59.6403 13.331H62.8228V10.2197H59.6403V13.331ZM59.6878 26.8447V14.9697H62.7753V26.8447H59.6878Z" fill="#1F2327" fill-opacity="0.3"></path><path d="M76.0596 20.9072C76.0596 16.7985 73.1383 14.851 70.0508 14.8272C66.9396 14.8035 64.0658 16.7985 64.0658 20.9072C64.0658 25.016 66.9396 27.011 70.0508 26.9872C72.8771 26.9635 74.8246 25.6572 75.7271 23.496L73.3283 22.4985C72.5921 23.971 71.4283 24.4935 70.0508 24.5172C68.8633 24.541 67.5096 23.971 67.2246 21.8572H75.9883C76.0358 21.5485 76.0596 21.2397 76.0596 20.9072ZM70.0508 17.2735C71.2383 17.2972 72.4496 17.9385 72.8296 19.6485H67.2721C67.6758 17.9147 68.8871 17.2497 70.0508 17.2735Z" fill="#1F2327" fill-opacity="0.3"></path><path d="M83.1949 17.1785V14.8272H81.2474V11.6447L78.1599 12.5947V14.8272H76.2124V17.1785H78.1599V23.3297C78.1599 25.6572 78.3499 26.8447 81.9599 26.8447H82.7912V24.1372H81.9599C81.3899 24.1372 81.2474 24.0422 81.2474 23.3297V17.1785H83.1949Z" fill="#1F2327" fill-opacity="0.3"></path><path d="M87.7828 24.256L94.3378 17.5585V14.9697H84.5053V17.5585H90.8703L84.3153 24.256V26.8447H94.409V24.256H87.7828Z" fill="#1F2327" fill-opacity="0.3"></path><path d="M95.516 23.496L98.6272 23.021C98.841 24.2085 100.242 24.6597 101.097 24.6597C101.976 24.6597 103.496 24.4697 103.496 23.0447C103.496 20.266 95.8722 23.7335 95.8722 18.4135C95.8722 14.9935 99.8385 14.8035 101.097 14.8035C102.285 14.8035 105.728 14.9935 106.441 17.7485L103.496 18.366C103.235 17.1072 101.905 16.8697 101.192 16.8697C100.48 16.8697 98.9597 17.036 98.9597 18.4135C98.9597 21.1685 106.583 17.6535 106.583 23.0447C106.583 26.6785 102.403 26.9872 101.097 26.9872C99.9097 26.9872 96.1335 26.6785 95.516 23.496Z" fill="#1F2327" fill-opacity="0.3"></path><path d="M110.594 20.9072C110.594 23.8047 112.138 24.6835 113.753 24.6597C115.202 24.636 116.199 24.0422 116.793 22.3797L119.334 23.6147C118.408 26.0372 116.152 26.9635 113.753 26.9872C110.642 27.011 107.507 25.016 107.507 20.9072C107.507 16.7985 110.642 14.8035 113.753 14.8272C116.152 14.851 118.408 15.7772 119.334 18.1997L116.793 19.4347C116.199 17.7722 115.202 17.1785 113.753 17.1547C112.138 17.131 110.594 18.0097 110.594 20.9072Z" fill="#1F2327" fill-opacity="0.3"></path><path d="M127.623 14.7797C126.032 14.7797 124.583 15.611 123.657 17.3922V10.2197H120.569V26.8447H123.657V22.641C123.657 17.2022 125.913 16.751 126.744 16.751C128.074 16.751 128.264 18.1285 128.264 20.1472V26.8447H131.352V20.1472C131.352 17.6297 130.948 14.7797 127.623 14.7797Z" fill="#1F2327" fill-opacity="0.3"></path><path d="M144.387 20.9072C144.387 16.7985 141.466 14.851 138.378 14.8272C135.267 14.8035 132.393 16.7985 132.393 20.9072C132.393 25.016 135.267 27.011 138.378 26.9872C141.205 26.9635 143.152 25.6572 144.055 23.496L141.656 22.4985C140.92 23.971 139.756 24.4935 138.378 24.5172C137.191 24.541 135.837 23.971 135.552 21.8572H144.316C144.363 21.5485 144.387 21.2397 144.387 20.9072ZM138.378 17.2735C139.566 17.2972 140.777 17.9385 141.157 19.6485H135.6C136.003 17.9147 137.215 17.2497 138.378 17.2735Z" fill="#1F2327" fill-opacity="0.3"></path><defs><clipPath id="clip0_6242_1013"><rect width="34.8333" height="34.8333" fill="white" transform="translate(0.916626 1.58337)"></rect></clipPath></defs></svg>