<svg xmlns="http://www.w3.org/2000/svg" width="166" height="58" viewBox="0 0 166 58" fill="none"><path opacity="0.8" d="M24.8106 37.8619C34.5983 37.8619 42.5328 29.9274 42.5328 20.1397C42.5328 10.352 34.5983 2.41748 24.8106 2.41748H-0.000488281V37.8619H24.8106Z" fill="url(#paint0_linear_6424_877)"></path><path opacity="0.6" d="M-0.000488281 2.41748L42.5328 55.5841H14.1773L-0.000488281 37.8619V2.41748Z" fill="url(#paint1_linear_6424_877)"></path><path d="M28.1098 37.5554C27.0409 37.7566 25.938 37.8619 24.8106 37.8619H-0.000488281V2.41748L28.1098 37.5554Z" fill="url(#paint2_linear_6424_877)"></path><path d="M68.5295 36.931C73.8995 36.931 77.7695 33.901 78.1595 29.401H73.6595C73.2995 31.561 71.2295 33.031 68.5295 33.031C65.1395 33.031 62.5295 30.691 62.5295 26.191C62.5295 21.691 65.1395 19.321 68.5295 19.321C71.1695 19.321 73.2395 20.791 73.5395 22.981H78.2495C77.6795 18.451 73.8095 15.451 68.5295 15.451C62.9195 15.451 57.9995 19.111 57.9995 26.191C57.9995 33.271 62.8295 36.931 68.5295 36.931Z" fill="#1F2327"></path><path d="M86.5108 21.331C82.3708 21.331 79.9108 23.761 79.7308 26.791H83.4508C83.5108 25.531 84.4408 24.391 86.2708 24.391C87.9808 24.391 88.9708 25.261 88.9708 26.521C88.9708 27.151 88.5808 27.631 87.8308 27.631H85.2808C81.9808 27.631 79.7608 29.431 79.7608 32.401C79.7608 34.981 81.7708 36.931 84.7108 36.931C86.7808 36.931 88.4608 36.001 88.9708 34.591V36.691H93.1108V26.971C93.1108 23.551 90.3208 21.331 86.5108 21.331ZM85.7608 33.901C84.5908 33.901 83.7508 33.211 83.7508 32.221C83.7508 31.051 84.6508 30.271 85.9108 30.271H88.9708V30.481C88.9708 32.401 87.8008 33.901 85.7608 33.901Z" fill="#1F2327"></path><path d="M95.9132 42.811H100.083V35.341C100.893 36.361 102.363 36.931 104.073 36.931C108.423 36.931 111.363 33.841 111.363 29.131C111.363 24.421 108.663 21.331 104.433 21.331C102.483 21.331 100.983 22.051 100.083 23.221V21.571H95.9132V42.811ZM103.563 33.331C101.313 33.331 99.8432 31.651 99.8432 29.131C99.8432 26.581 101.313 24.901 103.563 24.901C105.753 24.901 107.253 26.581 107.253 29.131C107.253 31.651 105.753 33.331 103.563 33.331Z" fill="#1F2327"></path><path d="M118.706 36.931C122.246 36.931 124.586 35.041 124.586 32.161C124.586 25.321 116.306 28.831 116.306 25.741C116.306 24.781 117.116 24.271 118.286 24.271C119.426 24.271 120.596 24.961 120.776 26.251H124.406C124.256 23.281 121.796 21.331 118.166 21.331C115.076 21.331 112.766 23.221 112.766 25.891C112.766 32.251 120.896 29.221 120.896 32.311C120.896 33.151 119.996 33.781 118.706 33.781C117.146 33.781 116.096 32.941 115.946 31.591H112.346C112.496 34.861 115.016 36.931 118.706 36.931Z" fill="#1F2327"></path><path d="M141.056 21.571H136.856V29.851C136.856 31.771 135.566 33.211 133.736 33.211C132.026 33.211 130.826 31.891 130.826 30.061V21.571H126.656V30.991C126.656 34.441 128.876 36.931 132.266 36.931C134.336 36.931 136.016 36.031 136.856 34.591V36.691H141.056V21.571Z" fill="#1F2327"></path><path d="M144.056 36.691H148.226V15.001H144.056V36.691Z" fill="#1F2327"></path><path d="M161.331 31.561C161.001 32.851 159.891 33.511 158.211 33.511C156.111 33.511 154.761 32.191 154.461 30.061H165.321C165.351 29.731 165.381 29.281 165.381 28.711C165.381 25.261 163.251 21.331 157.911 21.331C152.781 21.331 150.441 25.261 150.441 29.101C150.441 32.911 153.081 36.931 158.211 36.931C161.931 36.931 164.811 34.831 165.411 31.561H161.331ZM157.911 24.391C159.921 24.391 161.091 25.741 161.211 27.421H154.521C154.881 25.321 156.021 24.391 157.911 24.391Z" fill="#1F2327"></path><defs><linearGradient id="paint0_linear_6424_877" x1="-0.000488281" y1="20.1397" x2="42.5328" y2="20.1397" gradientUnits="userSpaceOnUse"><stop stop-color="#FD82AD"></stop><stop offset="1" stop-color="#F72B61"></stop></linearGradient><linearGradient id="paint1_linear_6424_877" x1="-0.000488281" y1="29.0008" x2="42.5328" y2="29.0008" gradientUnits="userSpaceOnUse"><stop stop-color="#FD82AD"></stop><stop offset="1" stop-color="#F72B61"></stop></linearGradient><linearGradient id="paint2_linear_6424_877" x1="-0.000488281" y1="20.1397" x2="28.1098" y2="20.1397" gradientUnits="userSpaceOnUse"><stop stop-color="#FD82AD"></stop><stop offset="1" stop-color="#F72B61"></stop></linearGradient></defs></svg>