<svg xmlns="http://www.w3.org/2000/svg" width="50" height="50" viewBox="0 0 50 50" fill="none"><g clip-path="url(#clip0_626_376)"><path d="M14.9985 15.4309H12.2374L19.7651 36.7099L23.9793 24.6671L20.712 15.4309H17.7987V13.4033H30.6996V15.4309H27.6785L35.2061 36.7099L37.912 28.9773C41.4615 19.0703 35.0027 15.9842 35.0027 13.7732C35.0027 11.5623 36.7951 9.76999 39.006 9.76999C39.1256 9.76999 39.2417 9.77646 39.3555 9.78708C35.6094 6.25068 30.5581 4.08203 24.9998 4.08203C17.737 4.08203 11.3396 7.78405 7.58936 13.4033H14.9983V15.4309H14.9985Z" fill="#00769D"></path><path d="M4.08203 25.0002C4.08203 33.0087 8.5833 39.9648 15.1931 43.4799L5.75323 16.7954C4.67789 19.3147 4.08203 22.0878 4.08203 25.0002Z" fill="#00769D"></path><path d="M43.2048 14.6924C43.504 16.4542 43.4134 18.4343 42.9542 20.4221H43.0374L42.7211 21.3259C42.5337 21.9785 42.2977 22.646 42.0297 23.302L34.832 43.4663C41.428 39.947 45.9178 32.9983 45.9178 25C45.9178 21.2521 44.9311 17.7349 43.2048 14.6924Z" fill="#00769D"></path><path d="M18.5487 44.9026C20.5809 45.5608 22.7485 45.9179 25.0001 45.9179C27.1476 45.9179 29.2193 45.5938 31.1696 44.9926L25.0509 27.6963L18.5487 44.9026Z" fill="#00769D"></path><path d="M42.6776 7.32229C37.9557 2.60044 31.6776 0 24.9999 0C18.3221 0 12.0441 2.60044 7.32229 7.32229C2.60044 12.0441 0 18.3221 0 25C0 31.6777 2.60044 37.9557 7.32229 42.6776C12.0441 47.3994 18.3223 49.9999 25 49.9999C31.6777 49.9999 37.9557 47.3994 42.6777 42.6776C47.3996 37.9557 50 31.6776 50 25C49.9999 18.3221 47.3994 12.0441 42.6776 7.32229ZM24.9999 48.2363C12.1873 48.2363 1.76356 37.8126 1.76356 25C1.76356 12.1874 12.1873 1.76356 24.9999 1.76356C37.8124 1.76356 48.2362 12.1874 48.2362 25C48.2362 37.8126 37.8126 48.2363 24.9999 48.2363Z" fill="#00769D"></path></g><defs><clipPath id="clip0_626_376"><rect width="50" height="50" fill="white"></rect></clipPath></defs></svg>