<svg xmlns="http://www.w3.org/2000/svg" width="133" height="42" viewBox="0 0 133 42" fill="none"><path d="M54.572 30.36C53.26 30.36 52.108 30.076 51.116 29.508C50.124 28.94 49.348 28.152 48.788 27.144C48.236 26.136 47.96 24.976 47.96 23.664C47.96 22.248 48.232 21.02 48.776 19.98C49.32 18.932 50.076 18.12 51.044 17.544C52.012 16.968 53.132 16.68 54.404 16.68C55.748 16.68 56.888 16.996 57.824 17.628C58.768 18.252 59.468 19.136 59.924 20.28C60.38 21.424 60.552 22.772 60.44 24.324H57.572V23.268C57.564 21.86 57.316 20.832 56.828 20.184C56.34 19.536 55.572 19.212 54.524 19.212C53.34 19.212 52.46 19.58 51.884 20.316C51.308 21.044 51.02 22.112 51.02 23.52C51.02 24.832 51.308 25.848 51.884 26.568C52.46 27.288 53.3 27.648 54.404 27.648C55.116 27.648 55.728 27.492 56.24 27.18C56.76 26.86 57.16 26.4 57.44 25.8L60.296 26.664C59.8 27.832 59.032 28.74 57.992 29.388C56.96 30.036 55.82 30.36 54.572 30.36ZM50.108 24.324V22.14H59.024V24.324H50.108ZM68.7455 30.36C67.4095 30.36 66.2695 30.064 65.3255 29.472C64.3815 28.872 63.6575 28.056 63.1535 27.024C62.6575 25.992 62.4055 24.824 62.3975 23.52C62.4055 22.192 62.6655 21.016 63.1775 19.992C63.6975 18.96 64.4335 18.152 65.3855 17.568C66.3375 16.976 67.4695 16.68 68.7815 16.68C70.2535 16.68 71.4975 17.052 72.5135 17.796C73.5375 18.532 74.2055 19.54 74.5175 20.82L71.6375 21.6C71.4135 20.904 71.0415 20.364 70.5215 19.98C70.0015 19.588 69.4095 19.392 68.7455 19.392C67.9935 19.392 67.3735 19.572 66.8855 19.932C66.3975 20.284 66.0375 20.772 65.8055 21.396C65.5735 22.02 65.4575 22.728 65.4575 23.52C65.4575 24.752 65.7335 25.748 66.2855 26.508C66.8375 27.268 67.6575 27.648 68.7455 27.648C69.5135 27.648 70.1175 27.472 70.5575 27.12C71.0055 26.768 71.3415 26.26 71.5655 25.596L74.5175 26.256C74.1175 27.576 73.4175 28.592 72.4175 29.304C71.4175 30.008 70.1935 30.36 68.7455 30.36ZM85.8862 30V23.76C85.8862 23.352 85.8582 22.9 85.8022 22.404C85.7462 21.908 85.6142 21.432 85.4062 20.976C85.2062 20.512 84.9022 20.132 84.4942 19.836C84.0942 19.54 83.5502 19.392 82.8622 19.392C82.4942 19.392 82.1302 19.452 81.7702 19.572C81.4102 19.692 81.0822 19.9 80.7862 20.196C80.4982 20.484 80.2662 20.884 80.0902 21.396C79.9142 21.9 79.8262 22.548 79.8262 23.34L78.1102 22.608C78.1102 21.504 78.3222 20.504 78.7462 19.608C79.1782 18.712 79.8102 18 80.6422 17.472C81.4742 16.936 82.4982 16.668 83.7142 16.668C84.6742 16.668 85.4662 16.828 86.0902 17.148C86.7142 17.468 87.2102 17.876 87.5782 18.372C87.9462 18.868 88.2182 19.396 88.3942 19.956C88.5702 20.516 88.6822 21.048 88.7302 21.552C88.7862 22.048 88.8142 22.452 88.8142 22.764V30H85.8862ZM76.8982 30V12.72H79.4782V21.816H79.8262V30H76.8982Z" fill="#1F2327"></path><path d="M100.91 30V23.76C100.91 23.352 100.882 22.9 100.826 22.404C100.77 21.908 100.638 21.432 100.43 20.976C100.23 20.512 99.9256 20.132 99.5176 19.836C99.1176 19.54 98.5736 19.392 97.8856 19.392C97.5176 19.392 97.1536 19.452 96.7936 19.572C96.4336 19.692 96.1056 19.9 95.8096 20.196C95.5216 20.484 95.2896 20.884 95.1136 21.396C94.9376 21.9 94.8496 22.548 94.8496 23.34L93.1336 22.608C93.1336 21.504 93.3456 20.504 93.7696 19.608C94.2016 18.712 94.8336 18 95.6656 17.472C96.4976 16.936 97.5216 16.668 98.7376 16.668C99.6976 16.668 100.49 16.828 101.114 17.148C101.738 17.468 102.234 17.876 102.602 18.372C102.97 18.868 103.242 19.396 103.418 19.956C103.594 20.516 103.706 21.048 103.754 21.552C103.81 22.048 103.838 22.452 103.838 22.764V30H100.91ZM91.9216 30V17.04H94.5016V21.06H94.8496V30H91.9216ZM112.65 30.36C111.338 30.36 110.186 30.076 109.194 29.508C108.202 28.94 107.426 28.152 106.866 27.144C106.314 26.136 106.038 24.976 106.038 23.664C106.038 22.248 106.31 21.02 106.854 19.98C107.398 18.932 108.154 18.12 109.122 17.544C110.09 16.968 111.21 16.68 112.482 16.68C113.826 16.68 114.966 16.996 115.902 17.628C116.846 18.252 117.546 19.136 118.002 20.28C118.458 21.424 118.63 22.772 118.518 24.324H115.65V23.268C115.642 21.86 115.394 20.832 114.906 20.184C114.418 19.536 113.65 19.212 112.602 19.212C111.418 19.212 110.538 19.58 109.962 20.316C109.386 21.044 109.098 22.112 109.098 23.52C109.098 24.832 109.386 25.848 109.962 26.568C110.538 27.288 111.378 27.648 112.482 27.648C113.194 27.648 113.806 27.492 114.318 27.18C114.838 26.86 115.238 26.4 115.518 25.8L118.374 26.664C117.878 27.832 117.11 28.74 116.07 29.388C115.038 30.036 113.898 30.36 112.65 30.36ZM108.186 24.324V22.14H117.102V24.324H108.186ZM119.287 30L124.027 23.448L119.383 17.04H122.791L125.707 21.18L128.575 17.04H131.983L127.339 23.448L132.103 30H128.695L125.707 25.716L122.695 30H119.287Z" fill="black" fill-opacity="0.5"></path><g clip-path="url(#clip0_6403_294)"><path d="M15.2969 23V7.37531C15.2969 6.1679 13.7838 5.62951 13.024 6.56661L0.356305 22.1913C-0.323182 23.0294 0.271947 24.2825 1.3495 24.2825H14.0172C14.724 24.2825 15.2969 23.7083 15.2969 23Z" fill="url(#paint0_linear_6403_294)"></path><path d="M26.6856 21.7175H14.0179C13.3111 21.7175 12.7383 22.2917 12.7383 23V38.6247C12.7383 39.8321 14.2513 40.3704 15.0111 39.4333L27.6788 23.8087C28.3584 22.9705 27.7631 21.7175 26.6856 21.7175Z" fill="#1F2327"></path></g><path d="M40.4692 10H35V30.8385H40.4692V20.2462H47.1846V15.6769H40.4692V10Z" fill="url(#paint1_linear_6403_294)"></path><path d="M45.7303 30.8382H40.4688V36.0997H45.7303V30.8382Z" fill="url(#paint2_linear_6403_294)"></path><defs><linearGradient id="paint0_linear_6403_294" x1="6.33907" y1="8.25177" x2="17.253" y2="28.7516" gradientUnits="userSpaceOnUse"><stop stop-color="#1F2327" stop-opacity="0.36"></stop><stop offset="1" stop-color="#B0C4DB" stop-opacity="0.18"></stop></linearGradient><linearGradient id="paint1_linear_6403_294" x1="35" y1="20.4192" x2="47.1846" y2="20.4192" gradientUnits="userSpaceOnUse"><stop stop-color="#FDD320"></stop><stop offset="1" stop-color="#F72B61"></stop></linearGradient><linearGradient id="paint2_linear_6403_294" x1="40.4688" y1="33.469" x2="45.7303" y2="33.469" gradientUnits="userSpaceOnUse"><stop stop-color="#FDD320"></stop><stop offset="1" stop-color="#F72B61"></stop></linearGradient><clipPath id="clip0_6403_294"><rect width="28" height="34" fill="white" transform="translate(0 6)"></rect></clipPath></defs></svg>