<svg xmlns="http://www.w3.org/2000/svg" width="32" height="32" viewBox="0 0 32 32" fill="none"><path d="M3.33321 17.6535V15.3468C3.33321 12.5868 5.58653 10.3335 8.34653 10.3335H23.6532C26.4132 10.3335 28.6665 12.5868 28.6665 15.3468V17.2668H25.9732C25.2265 17.2668 24.5465 17.5601 24.0532 18.0668C23.4932 18.6135 23.1732 19.4002 23.2532 20.2402C23.3732 21.6802 24.6932 22.7335 26.1332 22.7335H28.6665V24.3202C28.6665 27.0802 26.4132 29.3335 23.6532 29.3335H16.3465" stroke="white" stroke-width="1.5" stroke-linecap="round" stroke-linejoin="round"></path><path d="M3.33321 16.5467V10.4535C3.33321 8.86681 4.30653 7.45341 5.78653 6.89341L16.3732 2.89341C18.0265 2.26675 19.7999 3.49345 19.7999 5.26679V10.3334" stroke="white" stroke-width="1.5" stroke-linecap="round" stroke-linejoin="round"></path><path d="M30.0794 18.627V21.3738C30.0794 22.1071 29.4928 22.7071 28.7461 22.7337H26.1328C24.6928 22.7337 23.3728 21.6804 23.2528 20.2404C23.1728 19.4004 23.4928 18.6137 24.0528 18.0671C24.5461 17.5604 25.2261 17.2671 25.9728 17.2671H28.7461C29.4928 17.2938 30.0794 17.8937 30.0794 18.627Z" stroke="white" stroke-width="1.5" stroke-linecap="round" stroke-linejoin="round"></path><path d="M9.33321 16H18.6665" stroke="white" stroke-width="1.5" stroke-linecap="round" stroke-linejoin="round"></path><path d="M3.99988 22H11.1199C11.9732 22 12.6665 22.6933 12.6665 23.5466V25.2533" stroke="white" stroke-width="1.5" stroke-miterlimit="10" stroke-linecap="round" stroke-linejoin="round"></path><path d="M5.62655 20.3735L3.99988 22.0002L5.62655 23.6268" stroke="white" stroke-width="1.5" stroke-miterlimit="10" stroke-linecap="round" stroke-linejoin="round"></path><path d="M12.6665 29.04H5.54655C4.69322 29.04 3.99988 28.3466 3.99988 27.4932V25.7866" stroke="white" stroke-width="1.5" stroke-miterlimit="10" stroke-linecap="round" stroke-linejoin="round"></path><path d="M11.0415 30.6674L12.6682 29.0408L11.0415 27.4141" stroke="white" stroke-width="1.5" stroke-miterlimit="10" stroke-linecap="round" stroke-linejoin="round"></path></svg>