<svg xmlns="http://www.w3.org/2000/svg" width="526" height="457" viewBox="0 0 526 457" fill="none" style=""><path d="M131.299 1L1 228L19.2139 260.228L94.8717 131.315L150.914 228L75.2567 356.914L93.4706 390.543L319.043 1H281.214L170.529 194.37L113.086 97.6852L169.128 1H131.299Z" stroke="white" class="bkMXAEgB_0"></path><path d="M55.6417 324.685L37.4278 293.858L94.8717 195.772L113.086 226.599L55.6417 324.685Z" stroke="white" class="bkMXAEgB_1"></path><path d="M206.957 1L149.513 99.0864L169.128 129.914L244.786 1H206.957Z" stroke="white" class="bkMXAEgB_2"></path><path d="M113.086 422.071L131.299 455L375.786 34.6296L506.086 260.228L525 228L395.401 1H356.872L113.086 422.071Z" stroke="white" class="bkMXAEgB_3"></path><path d="M375.786 99.0864L169.128 455H206.957L300.128 293.858L395.401 455L412.214 422.071L319.043 260.228L375.786 162.843L468.957 324.685L488.572 293.858L375.786 99.0864Z" stroke="white" class="bkMXAEgB_4"></path><path d="M300.128 356.914L244.786 455H281.214L300.128 422.071L319.043 455H356.872L300.128 356.914Z" stroke="white" class="bkMXAEgB_5"></path><path d="M450.743 356.914L431.829 390.543L356.872 260.228L375.786 228L450.743 356.914Z" stroke="white" class="bkMXAEgB_6"></path><style data-made-with="vivus-instant">.bkMXAEgB_0{stroke-dasharray:1721 1723;stroke-dashoffset:1722;animation:bkMXAEgB_draw_0 10200ms linear 0ms infinite,bkMXAEgB_fade 10200ms linear 0ms infinite;}.bkMXAEgB_1{stroke-dasharray:299 301;stroke-dashoffset:300;animation:bkMXAEgB_draw_1 10200ms linear 0ms infinite,bkMXAEgB_fade 10200ms linear 0ms infinite;}.bkMXAEgB_2{stroke-dasharray:338 340;stroke-dashoffset:339;animation:bkMXAEgB_draw_2 10200ms linear 0ms infinite,bkMXAEgB_fade 10200ms linear 0ms infinite;}.bkMXAEgB_3{stroke-dasharray:1609 1611;stroke-dashoffset:1610;animation:bkMXAEgB_draw_3 10200ms linear 0ms infinite,bkMXAEgB_fade 10200ms linear 0ms infinite;}.bkMXAEgB_4{stroke-dasharray:1608 1610;stroke-dashoffset:1609;animation:bkMXAEgB_draw_4 10200ms linear 0ms infinite,bkMXAEgB_fade 10200ms linear 0ms infinite;}.bkMXAEgB_5{stroke-dasharray:377 379;stroke-dashoffset:378;animation:bkMXAEgB_draw_5 10200ms linear 0ms infinite,bkMXAEgB_fade 10200ms linear 0ms infinite;}.bkMXAEgB_6{stroke-dasharray:376 378;stroke-dashoffset:377;animation:bkMXAEgB_draw_6 10200ms linear 0ms infinite,bkMXAEgB_fade 10200ms linear 0ms infinite;}@keyframes bkMXAEgB_draw{100%{stroke-dashoffset:0;}}@keyframes bkMXAEgB_fade{0%{stroke-opacity:1;}96.07843137254902%{stroke-opacity:1;}100%{stroke-opacity:0;}}@keyframes bkMXAEgB_draw_0{7.8431372549019605%{stroke-dashoffset: 1722}47.05882352941176%{ stroke-dashoffset: 0;}100%{ stroke-dashoffset: 0;}}@keyframes bkMXAEgB_draw_1{11.11111111111111%{stroke-dashoffset: 300}50.326797385620914%{ stroke-dashoffset: 0;}100%{ stroke-dashoffset: 0;}}@keyframes bkMXAEgB_draw_2{14.37908496732026%{stroke-dashoffset: 339}53.59477124183007%{ stroke-dashoffset: 0;}100%{ stroke-dashoffset: 0;}}@keyframes bkMXAEgB_draw_3{17.647058823529413%{stroke-dashoffset: 1610}56.86274509803921%{ stroke-dashoffset: 0;}100%{ stroke-dashoffset: 0;}}@keyframes bkMXAEgB_draw_4{20.91503267973856%{stroke-dashoffset: 1609}60.130718954248366%{ stroke-dashoffset: 0;}100%{ stroke-dashoffset: 0;}}@keyframes bkMXAEgB_draw_5{24.183006535947708%{stroke-dashoffset: 378}63.39869281045751%{ stroke-dashoffset: 0;}100%{ stroke-dashoffset: 0;}}@keyframes bkMXAEgB_draw_6{27.450980392156865%{stroke-dashoffset: 377}66.66666666666666%{ stroke-dashoffset: 0;}100%{ stroke-dashoffset: 0;}}</style></svg>