<svg xmlns="http://www.w3.org/2000/svg" width="32" height="32" viewBox="0 0 32 32" fill="none"><path d="M20.336 0H4C1.792 0 0 1.49333 0 3.33333V32H12.8V30.6667H1.6V3.33333C1.6 2.22667 2.672 1.33333 4 1.33333H19.2V10.6667H30.4V30.6667H27.2V32H32V9.72L20.336 0ZM20.8 2.28L29.264 9.33333H20.8V2.28ZM20 17.3333C16.912 17.3333 14.4 19.4267 14.4 22C14.4 23.2667 15.008 24.4267 16 25.2667V32L20 29.4933L24 32V25.2667C24.992 24.4267 25.6 23.2667 25.6 22C25.6 19.4267 23.088 17.3333 20 17.3333ZM20 18.6667C22.208 18.6667 24 20.16 24 22C24 23.84 22.208 25.3333 20 25.3333C17.792 25.3333 16 23.84 16 22C16 20.16 17.792 18.6667 20 18.6667ZM20 27.84L17.6 29.3333V26.2133C18.32 26.5067 19.136 26.6667 20 26.6667C20.864 26.6667 21.68 26.5067 22.4 26.2133V29.3333L20 27.84Z" fill="#5B43C4"></path></svg>