<svg xmlns="http://www.w3.org/2000/svg" width="32" height="32" viewBox="0 0 32 32" fill="none"><path d="M26 0H6C2.692 0 0 2.692 0 6V26C0 29.308 2.692 32 6 32H21.7907C23.3693 32 24.916 31.36 26.0333 30.2427L30.2427 26.0347C31.376 24.9013 32 23.3947 32 21.7907V6C32 2.692 29.308 0 26 0ZM1.33333 26V6C1.33333 3.42667 3.42667 1.33333 6 1.33333H26C28.5733 1.33333 30.6667 3.42667 30.6667 6V21.3333H24.6667C22.8293 21.3333 21.3333 22.828 21.3333 24.6667V30.6667H6C3.42667 30.6667 1.33333 28.5733 1.33333 26ZM29.3 25.0907L25.0907 29.2987C24.4307 29.9587 23.5773 30.4053 22.6667 30.5813V24.6667C22.6667 23.564 23.564 22.6667 24.6667 22.6667H30.5853C30.4133 23.58 29.972 24.42 29.3 25.0907ZM5.33333 8C5.33333 7.264 5.93067 6.66667 6.66667 6.66667C7.40267 6.66667 8 7.264 8 8C8 8.736 7.40267 9.33333 6.66667 9.33333C5.93067 9.33333 5.33333 8.736 5.33333 8ZM8 16C8 16.736 7.40267 17.3333 6.66667 17.3333C5.93067 17.3333 5.33333 16.736 5.33333 16C5.33333 15.264 5.93067 14.6667 6.66667 14.6667C7.40267 14.6667 8 15.264 8 16ZM8 24C8 24.736 7.40267 25.3333 6.66667 25.3333C5.93067 25.3333 5.33333 24.736 5.33333 24C5.33333 23.264 5.93067 22.6667 6.66667 22.6667C7.40267 22.6667 8 23.264 8 24Z" fill="#5B43C4"></path></svg>