<svg xmlns="http://www.w3.org/2000/svg" width="60" height="60" viewBox="0 0 60 60" fill="none"><path d="M7.6394 6.20675L9.70836 4.13779H17.9839L20.0529 6.20675H7.6394Z" fill="url(#paint0_linear_6426_1446)"></path><path d="M3.50108 10.3451L5.57005 8.27611H22.1222L24.1912 10.3451H3.50108Z" fill="url(#paint1_linear_6426_1446)"></path><path d="M0.6367 14.4829L0 13.8462L1.43226 12.4139H26.26L28.329 14.4829H0.6367Z" fill="url(#paint2_linear_6426_1446)"></path><path d="M4.77448 18.6206L2.70552 16.5517H57.2945L55.2255 18.6206H4.77448Z" fill="url(#paint3_linear_6426_1446)"></path><path d="M8.91227 22.7584L6.84331 20.6895H53.1567L51.0877 22.7584H8.91227Z" fill="url(#paint4_linear_6426_1446)"></path><path d="M13.0506 26.8967L10.9816 24.8278H49.0184L46.9494 26.8967H13.0506Z" fill="url(#paint5_linear_6426_1446)"></path><path d="M15.1193 31.0345L16.1539 30L15.1194 28.9656H44.8806L43.8461 30L44.8807 31.0345H15.1193Z" fill="url(#paint6_linear_6426_1446)"></path><path d="M10.9816 35.1723L13.0505 33.1034H46.9495L49.0184 35.1723H10.9816Z" fill="url(#paint7_linear_6426_1446)"></path><path d="M6.84377 39.3101L8.91274 37.2411H51.0873L53.1562 39.3101H6.84377Z" fill="url(#paint8_linear_6426_1446)"></path><path d="M2.70545 43.4484L4.77442 41.3795H55.2256L57.2945 43.4484H2.70545Z" fill="url(#paint9_linear_6426_1446)"></path><path d="M1.43239 47.5862L3.26974e-05 46.1539L0.636635 45.5172H28.3289L26.26 47.5862H1.43239Z" fill="url(#paint10_linear_6426_1446)"></path><path d="M5.57018 51.724L3.50122 49.655H24.1911L22.1222 51.724H5.57018Z" fill="url(#paint11_linear_6426_1446)"></path><path d="M9.7085 55.8623L7.63954 53.7934H20.0528L17.9839 55.8623H9.7085Z" fill="url(#paint12_linear_6426_1446)"></path><path d="M52.3605 53.7934L50.2915 55.8623H42.0161L39.9472 53.7934H52.3605Z" fill="url(#paint13_linear_6426_1446)"></path><path d="M56.4988 49.655L54.4298 51.724H37.8778L35.8089 49.655H56.4988Z" fill="url(#paint14_linear_6426_1446)"></path><path d="M59.3634 45.5172L60 46.1539L58.5676 47.5862H33.74L31.6711 45.5172H59.3634Z" fill="url(#paint15_linear_6426_1446)"></path><path d="M44.085 57.9311H48.2227L46.1538 60L44.085 57.9311Z" fill="url(#paint16_linear_6426_1446)"></path><path d="M15.915 57.9311L13.8462 60L11.7773 57.9311H15.915Z" fill="url(#paint17_linear_6426_1446)"></path><path d="M58.5677 12.4139L60 13.8462L59.3633 14.4829H31.671L33.74 12.4139H58.5677Z" fill="url(#paint18_linear_6426_1446)"></path><path d="M54.4299 8.27611L56.4989 10.3451H35.8088L37.8778 8.27611H54.4299Z" fill="url(#paint19_linear_6426_1446)"></path><path d="M50.2916 4.13779L52.3606 6.20675H39.9471L42.0161 4.13779H50.2916Z" fill="url(#paint20_linear_6426_1446)"></path><path d="M46.1539 0L48.2228 2.06897H44.0849L46.1539 0Z" fill="url(#paint21_linear_6426_1446)"></path><path d="M13.8461 0L11.7772 2.06897H15.9151L13.8461 0Z" fill="url(#paint22_linear_6426_1446)"></path><defs><linearGradient id="paint0_linear_6426_1446" x1="0" y1="30" x2="60" y2="30" gradientUnits="userSpaceOnUse"><stop stop-color="#FDD320"></stop><stop offset="1" stop-color="#F72B61"></stop></linearGradient><linearGradient id="paint1_linear_6426_1446" x1="0" y1="30" x2="60" y2="30" gradientUnits="userSpaceOnUse"><stop stop-color="#FDD320"></stop><stop offset="1" stop-color="#F72B61"></stop></linearGradient><linearGradient id="paint2_linear_6426_1446" x1="0" y1="30" x2="60" y2="30" gradientUnits="userSpaceOnUse"><stop stop-color="#FDD320"></stop><stop offset="1" stop-color="#F72B61"></stop></linearGradient><linearGradient id="paint3_linear_6426_1446" x1="0" y1="30" x2="60" y2="30" gradientUnits="userSpaceOnUse"><stop stop-color="#FDD320"></stop><stop offset="1" stop-color="#F72B61"></stop></linearGradient><linearGradient id="paint4_linear_6426_1446" x1="0" y1="30" x2="60" y2="30" gradientUnits="userSpaceOnUse"><stop stop-color="#FDD320"></stop><stop offset="1" stop-color="#F72B61"></stop></linearGradient><linearGradient id="paint5_linear_6426_1446" x1="0" y1="30" x2="60" y2="30" gradientUnits="userSpaceOnUse"><stop stop-color="#FDD320"></stop><stop offset="1" stop-color="#F72B61"></stop></linearGradient><linearGradient id="paint6_linear_6426_1446" x1="0" y1="30" x2="60" y2="30" gradientUnits="userSpaceOnUse"><stop stop-color="#FDD320"></stop><stop offset="1" stop-color="#F72B61"></stop></linearGradient><linearGradient id="paint7_linear_6426_1446" x1="0" y1="30" x2="60" y2="30" gradientUnits="userSpaceOnUse"><stop stop-color="#FDD320"></stop><stop offset="1" stop-color="#F72B61"></stop></linearGradient><linearGradient id="paint8_linear_6426_1446" x1="0" y1="30" x2="60" y2="30" gradientUnits="userSpaceOnUse"><stop stop-color="#FDD320"></stop><stop offset="1" stop-color="#F72B61"></stop></linearGradient><linearGradient id="paint9_linear_6426_1446" x1="0" y1="30" x2="60" y2="30" gradientUnits="userSpaceOnUse"><stop stop-color="#FDD320"></stop><stop offset="1" stop-color="#F72B61"></stop></linearGradient><linearGradient id="paint10_linear_6426_1446" x1="0" y1="30" x2="60" y2="30" gradientUnits="userSpaceOnUse"><stop stop-color="#FDD320"></stop><stop offset="1" stop-color="#F72B61"></stop></linearGradient><linearGradient id="paint11_linear_6426_1446" x1="0" y1="30" x2="60" y2="30" gradientUnits="userSpaceOnUse"><stop stop-color="#FDD320"></stop><stop offset="1" stop-color="#F72B61"></stop></linearGradient><linearGradient id="paint12_linear_6426_1446" x1="0" y1="30" x2="60" y2="30" gradientUnits="userSpaceOnUse"><stop stop-color="#FDD320"></stop><stop offset="1" stop-color="#F72B61"></stop></linearGradient><linearGradient id="paint13_linear_6426_1446" x1="0" y1="30" x2="60" y2="30" gradientUnits="userSpaceOnUse"><stop stop-color="#FDD320"></stop><stop offset="1" stop-color="#F72B61"></stop></linearGradient><linearGradient id="paint14_linear_6426_1446" x1="0" y1="30" x2="60" y2="30" gradientUnits="userSpaceOnUse"><stop stop-color="#FDD320"></stop><stop offset="1" stop-color="#F72B61"></stop></linearGradient><linearGradient id="paint15_linear_6426_1446" x1="0" y1="30" x2="60" y2="30" gradientUnits="userSpaceOnUse"><stop stop-color="#FDD320"></stop><stop offset="1" stop-color="#F72B61"></stop></linearGradient><linearGradient id="paint16_linear_6426_1446" x1="0" y1="30" x2="60" y2="30" gradientUnits="userSpaceOnUse"><stop stop-color="#FDD320"></stop><stop offset="1" stop-color="#F72B61"></stop></linearGradient><linearGradient id="paint17_linear_6426_1446" x1="0" y1="30" x2="60" y2="30" gradientUnits="userSpaceOnUse"><stop stop-color="#FDD320"></stop><stop offset="1" stop-color="#F72B61"></stop></linearGradient><linearGradient id="paint18_linear_6426_1446" x1="0" y1="30" x2="60" y2="30" gradientUnits="userSpaceOnUse"><stop stop-color="#FDD320"></stop><stop offset="1" stop-color="#F72B61"></stop></linearGradient><linearGradient id="paint19_linear_6426_1446" x1="0" y1="30" x2="60" y2="30" gradientUnits="userSpaceOnUse"><stop stop-color="#FDD320"></stop><stop offset="1" stop-color="#F72B61"></stop></linearGradient><linearGradient id="paint20_linear_6426_1446" x1="0" y1="30" x2="60" y2="30" gradientUnits="userSpaceOnUse"><stop stop-color="#FDD320"></stop><stop offset="1" stop-color="#F72B61"></stop></linearGradient><linearGradient id="paint21_linear_6426_1446" x1="0" y1="30" x2="60" y2="30" gradientUnits="userSpaceOnUse"><stop stop-color="#FDD320"></stop><stop offset="1" stop-color="#F72B61"></stop></linearGradient><linearGradient id="paint22_linear_6426_1446" x1="0" y1="30" x2="60" y2="30" gradientUnits="userSpaceOnUse"><stop stop-color="#FDD320"></stop><stop offset="1" stop-color="#F72B61"></stop></linearGradient></defs></svg>