<svg xmlns="http://www.w3.org/2000/svg" width="158" height="38" viewBox="0 0 158 38" fill="none"><path d="M29.5343 8.83749C29.1922 8.49531 28.85 8.15314 28.5078 7.81096C27.4813 6.71601 26.3863 5.62105 25.0176 4.9367C23.4436 4.11549 21.7328 4.32078 20.0219 4.32078C17.4214 4.32078 10.9201 4.32078 7.08771 4.32078L9.68823 7.81096C14.4102 7.81096 21.8012 7.81096 25.2229 7.81096C26.6601 7.81096 27.8919 8.0847 29.0553 8.83749C29.2606 8.90592 29.4659 8.90592 29.5343 8.83749Z" fill="#66C61C"></path><path d="M32.4085 14.4493C32.0664 14.1071 31.7242 13.7649 31.382 13.4228C30.3555 12.3278 29.2605 11.2329 27.8918 10.5485C26.3178 9.72729 24.607 9.9326 22.8961 9.9326C20.6378 9.9326 15.2314 9.9326 11.399 9.9326L13.9996 13.4228C18.6531 13.4228 25.0176 13.4228 28.1656 13.4228C29.6027 13.4228 30.8345 13.6965 31.9979 14.4493C32.1348 14.5177 32.2717 14.5177 32.4085 14.4493Z" fill="#4CA30D"></path><path d="M35.625 19.9239C35.2828 19.5817 34.9406 19.2396 34.5984 18.8974C33.5719 17.8024 32.477 16.7075 31.1083 16.0231C29.5343 15.2019 27.8234 15.4072 26.1125 15.4072C23.991 15.4072 19.3375 15.4072 15.5735 15.4072L18.1741 18.8974C22.6908 18.8974 28.4393 18.8974 31.3136 18.8974C32.7507 18.8974 33.9825 19.1711 35.1459 19.9239C35.3512 19.9924 35.4881 20.0608 35.625 19.9239Z" fill="#3B7C0F"></path><path d="M6.81396 29.1625C7.15614 29.5047 7.49831 29.8469 7.84049 30.1891C8.86701 31.284 9.96196 32.379 11.3307 33.0633C12.9047 33.8845 14.6155 33.6792 16.3264 33.6792H29.2606L26.6601 30.1891C21.9381 30.1891 14.5471 30.1891 11.1254 30.1891C9.68823 30.1891 8.4564 29.9153 7.29301 29.1625C7.0877 29.0941 6.95083 29.0941 6.81396 29.1625Z" fill="#66C61C"></path><path d="M3.93964 23.5511C4.28181 23.8933 4.62398 24.2354 4.96616 24.5776C5.99268 25.6726 7.08763 26.7675 8.45633 27.4519C10.0303 28.2731 11.7412 28.0678 13.4521 28.0678H24.9491L22.3486 24.5776C17.695 24.5776 11.3306 24.5776 8.18259 24.5776C6.74546 24.5776 5.51363 24.3039 4.35024 23.5511C4.21337 23.4826 4.07651 23.4826 3.93964 23.5511Z" fill="#4CA30D"></path><path d="M0.791626 18.0076C1.1338 18.3498 1.47597 18.692 1.81815 19.0341C2.84467 20.1291 3.93963 21.2241 5.30833 21.9084C6.88233 22.7296 8.59319 22.5243 10.3041 22.5243H20.843L18.2425 19.0341C13.7258 19.0341 7.97729 19.0341 5.10302 19.0341C3.66589 19.0341 2.43406 18.7604 1.27067 18.0076C1.06536 17.9392 0.928496 17.9392 0.791626 18.0076Z" fill="#3B7C0F"></path><path d="M43.4878 11.0897V26.9167H46.968V20.3776H53.5958V17.6732H46.968V14.0157H54.6155V11.0897H43.4878Z" fill="#1F2327" fill-opacity="0.3"></path><path d="M63.3441 19.9564H58.2236C58.2384 19.7347 58.2827 19.4835 58.3566 19.2027C58.4453 18.9219 58.5857 18.6559 58.7778 18.4047C58.9847 18.1535 59.2507 17.9466 59.5758 17.7841C59.9157 17.6067 60.3368 17.5181 60.8393 17.5181C61.6077 17.5181 62.1767 17.7249 62.5461 18.1387C62.9303 18.5525 63.1963 19.1584 63.3441 19.9564ZM58.2236 21.9514H66.4918C66.5509 21.0647 66.477 20.215 66.2701 19.4022C66.0632 18.5894 65.7233 17.8653 65.2504 17.2299C64.7923 16.5944 64.2012 16.092 63.4771 15.7226C62.753 15.3383 61.9033 15.1462 60.9279 15.1462C60.056 15.1462 59.258 15.3014 58.5339 15.6117C57.8246 15.9221 57.2113 16.3506 56.6941 16.8974C56.1769 17.4294 55.7779 18.0648 55.4971 18.8037C55.2163 19.5426 55.0759 20.3406 55.0759 21.1977C55.0759 22.0844 55.2089 22.8972 55.4749 23.6361C55.7557 24.3749 56.1473 25.0104 56.6498 25.5424C57.1522 26.0744 57.7655 26.4882 58.4896 26.7837C59.2137 27.0645 60.0265 27.2049 60.9279 27.2049C62.2284 27.2049 63.3367 26.9093 64.2529 26.3182C65.1692 25.7271 65.8489 24.7444 66.2923 23.3701H63.5214C63.418 23.7247 63.1372 24.0646 62.6791 24.3897C62.221 24.7001 61.6742 24.8552 61.0388 24.8552C60.1521 24.8552 59.4723 24.6262 58.9994 24.1681C58.5265 23.7099 58.2679 22.9711 58.2236 21.9514Z" fill="#1F2327" fill-opacity="0.3"></path><path d="M67.5606 18.9811C67.605 18.2422 67.7897 17.6289 68.1148 17.1412C68.4399 16.6536 68.8537 16.2619 69.3561 15.9664C69.8586 15.6708 70.4201 15.4639 71.0408 15.3457C71.6762 15.2127 72.3117 15.1462 72.9471 15.1462C73.5235 15.1462 74.1072 15.1906 74.6983 15.2792C75.2894 15.3531 75.8288 15.5083 76.3165 15.7447C76.8041 15.9812 77.2031 16.3137 77.5135 16.7422C77.8238 17.156 77.979 17.7102 77.979 18.4047V24.3676C77.979 24.8848 78.0085 25.3798 78.0676 25.8527C78.1267 26.3256 78.2302 26.6803 78.378 26.9167H75.186C75.1268 26.7394 75.0751 26.5621 75.0308 26.3847C75.0012 26.1926 74.9791 26.0005 74.9643 25.8084C74.4618 26.3256 73.8707 26.6877 73.191 26.8946C72.5112 27.1014 71.8166 27.2049 71.1073 27.2049C70.5605 27.2049 70.0507 27.1384 69.5778 27.0054C69.1049 26.8724 68.6911 26.6655 68.3365 26.3847C67.9818 26.1039 67.701 25.7493 67.4941 25.3207C67.302 24.8922 67.206 24.3823 67.206 23.7912C67.206 23.141 67.3168 22.609 67.5385 22.1952C67.7749 21.7667 68.0705 21.4268 68.4251 21.1756C68.7946 20.9243 69.2083 20.7396 69.6665 20.6214C70.1393 20.4884 70.6122 20.3849 71.0851 20.3111C71.558 20.2372 72.0235 20.1781 72.4816 20.1337C72.9397 20.0894 73.3461 20.0229 73.7008 19.9342C74.0555 19.8456 74.3362 19.7199 74.5431 19.5574C74.75 19.3801 74.8461 19.1288 74.8313 18.8037C74.8313 18.4638 74.7722 18.1978 74.654 18.0057C74.5505 17.7988 74.4027 17.6437 74.2106 17.5402C74.0333 17.422 73.819 17.3481 73.5678 17.3186C73.3313 17.2742 73.0727 17.2521 72.792 17.2521C72.1713 17.2521 71.6836 17.3851 71.329 17.6511C70.9743 17.9171 70.7674 18.3604 70.7083 18.9811H67.5606ZM74.8313 21.3086C74.6983 21.4268 74.5283 21.5228 74.3215 21.5967C74.1293 21.6558 73.9151 21.7076 73.6786 21.7519C73.457 21.7962 73.2205 21.8332 72.9693 21.8627C72.7181 21.8923 72.4668 21.9292 72.2156 21.9736C71.9792 22.0179 71.7427 22.077 71.5063 22.1509C71.2846 22.2248 71.0851 22.3282 70.9078 22.4612C70.7452 22.5794 70.6122 22.7346 70.5088 22.9267C70.4053 23.1188 70.3536 23.3627 70.3536 23.6582C70.3536 23.939 70.4053 24.1754 70.5088 24.3676C70.6122 24.5597 70.7526 24.7148 70.93 24.8331C71.1073 24.9365 71.3142 25.0104 71.5506 25.0547C71.7871 25.0991 72.0309 25.1212 72.2821 25.1212C72.9028 25.1212 73.3831 25.0178 73.7229 24.8109C74.0628 24.604 74.3141 24.3602 74.4766 24.0794C74.6392 23.7838 74.7352 23.4883 74.7648 23.1927C74.8091 22.8972 74.8313 22.6607 74.8313 22.4834V21.3086Z" fill="#1F2327" fill-opacity="0.3"></path><path d="M83.7471 15.4566V12.0207H80.5995V15.4566H78.6931V17.5624H80.5995V24.3232C80.5995 24.8996 80.6955 25.3651 80.8876 25.7197C81.0797 26.0744 81.3384 26.3478 81.6635 26.5399C82.0034 26.732 82.3876 26.8576 82.8161 26.9167C83.2595 26.9906 83.725 27.0276 84.2126 27.0276C84.523 27.0276 84.8407 27.0202 85.1658 27.0054C85.4909 26.9906 85.7865 26.9611 86.0525 26.9167V24.4784C85.9047 24.5079 85.7495 24.5301 85.587 24.5449C85.4244 24.5597 85.2545 24.5671 85.0771 24.5671C84.5451 24.5671 84.1905 24.4784 84.0131 24.3011C83.8358 24.1237 83.7471 23.7691 83.7471 23.2371V17.5624H86.0525V15.4566H83.7471Z" fill="#1F2327" fill-opacity="0.3"></path><path d="M86.8851 11.0897V26.9167H90.0328V20.9096C90.0328 19.7421 90.2249 18.9072 90.6091 18.4047C90.9933 17.8875 91.614 17.6289 92.4711 17.6289C93.2248 17.6289 93.7494 17.8653 94.0449 18.3382C94.3405 18.7963 94.4883 19.4983 94.4883 20.4441V26.9167H97.6359V19.8677C97.6359 19.1584 97.5694 18.5156 97.4364 17.9392C97.3182 17.3481 97.1039 16.8531 96.7936 16.4541C96.4833 16.0403 96.0547 15.7226 95.5079 15.5009C94.9759 15.2644 94.2888 15.1462 93.4464 15.1462C92.8553 15.1462 92.2494 15.3014 91.6288 15.6117C91.0081 15.9073 90.4983 16.3876 90.0993 17.0526H90.0328V11.0897H86.8851Z" fill="#1F2327" fill-opacity="0.3"></path><path d="M107.074 19.9564H101.953C101.968 19.7347 102.013 19.4835 102.086 19.2027C102.175 18.9219 102.315 18.6559 102.508 18.4047C102.714 18.1535 102.98 17.9466 103.306 17.7841C103.645 17.6067 104.067 17.5181 104.569 17.5181C105.338 17.5181 105.906 17.7249 106.276 18.1387C106.66 18.5525 106.926 19.1584 107.074 19.9564ZM101.953 21.9514H110.222C110.281 21.0647 110.207 20.215 110 19.4022C109.793 18.5894 109.453 17.8653 108.98 17.2299C108.522 16.5944 107.931 16.092 107.207 15.7226C106.483 15.3383 105.633 15.1462 104.658 15.1462C103.786 15.1462 102.988 15.3014 102.264 15.6117C101.554 15.9221 100.941 16.3506 100.424 16.8974C99.9067 17.4294 99.5077 18.0648 99.2269 18.8037C98.9461 19.5426 98.8057 20.3406 98.8057 21.1977C98.8057 22.0844 98.9388 22.8972 99.2048 23.6361C99.4855 24.3749 99.8771 25.0104 100.38 25.5424C100.882 26.0744 101.495 26.4882 102.219 26.7837C102.944 27.0645 103.756 27.2049 104.658 27.2049C105.958 27.2049 107.067 26.9093 107.983 26.3182C108.899 25.7271 109.579 24.7444 110.022 23.3701H107.251C107.148 23.7247 106.867 24.0646 106.409 24.3897C105.951 24.7001 105.404 24.8552 104.769 24.8552C103.882 24.8552 103.202 24.6262 102.729 24.1681C102.256 23.7099 101.998 22.9711 101.953 21.9514Z" fill="#1F2327" fill-opacity="0.3"></path><path d="M111.423 15.4566V26.9167H114.571V21.7519C114.571 21.2347 114.623 20.7544 114.726 20.3111C114.83 19.8677 115 19.4835 115.236 19.1584C115.487 18.8185 115.812 18.5525 116.211 18.3604C116.61 18.1683 117.098 18.0722 117.674 18.0722C117.867 18.0722 118.066 18.087 118.273 18.1166C118.48 18.1313 118.657 18.1535 118.805 18.1831V15.2571C118.554 15.1832 118.325 15.1462 118.118 15.1462C117.719 15.1462 117.335 15.2053 116.965 15.3236C116.596 15.4418 116.248 15.6117 115.923 15.8334C115.598 16.0403 115.31 16.2989 115.059 16.6092C114.808 16.9048 114.608 17.2299 114.46 17.5846H114.416V15.4566H111.423Z" fill="#1F2327" fill-opacity="0.3"></path><path d="M123.187 23.9907V14.0157H125.669C126.526 14.0157 127.243 14.1413 127.819 14.3926C128.411 14.629 128.883 14.9763 129.238 15.4344C129.593 15.8925 129.844 16.4467 129.992 17.0969C130.154 17.7323 130.236 18.4491 130.236 19.2471C130.236 20.1189 130.125 20.8578 129.903 21.4637C129.681 22.0696 129.386 22.5647 129.016 22.9489C128.647 23.3183 128.226 23.5843 127.753 23.7469C127.28 23.9094 126.792 23.9907 126.29 23.9907H123.187ZM119.706 11.0897V26.9167H126.534C127.746 26.9167 128.795 26.7172 129.681 26.3182C130.583 25.9044 131.329 25.3429 131.92 24.6336C132.526 23.9242 132.977 23.0819 133.272 22.1066C133.568 21.1312 133.716 20.0672 133.716 18.9146C133.716 17.5993 133.531 16.4541 133.162 15.4787C132.807 14.5034 132.305 13.6906 131.654 13.0404C131.019 12.3902 130.258 11.9025 129.371 11.5774C128.499 11.2523 127.553 11.0897 126.534 11.0897H119.706Z" fill="#1F2327" fill-opacity="0.3"></path><path d="M142.853 19.9564H137.733C137.747 19.7347 137.792 19.4835 137.866 19.2027C137.954 18.9219 138.095 18.6559 138.287 18.4047C138.494 18.1535 138.76 17.9466 139.085 17.7841C139.425 17.6067 139.846 17.5181 140.348 17.5181C141.117 17.5181 141.686 17.7249 142.055 18.1387C142.439 18.5525 142.705 19.1584 142.853 19.9564ZM137.733 21.9514H146.001C146.06 21.0647 145.986 20.215 145.779 19.4022C145.572 18.5894 145.232 17.8653 144.759 17.2299C144.301 16.5944 143.71 16.092 142.986 15.7226C142.262 15.3383 141.412 15.1462 140.437 15.1462C139.565 15.1462 138.767 15.3014 138.043 15.6117C137.334 15.9221 136.72 16.3506 136.203 16.8974C135.686 17.4294 135.287 18.0648 135.006 18.8037C134.725 19.5426 134.585 20.3406 134.585 21.1977C134.585 22.0844 134.718 22.8972 134.984 23.6361C135.265 24.3749 135.656 25.0104 136.159 25.5424C136.661 26.0744 137.275 26.4882 137.999 26.7837C138.723 27.0645 139.536 27.2049 140.437 27.2049C141.737 27.2049 142.846 26.9093 143.762 26.3182C144.678 25.7271 145.358 24.7444 145.801 23.3701H143.03C142.927 23.7247 142.646 24.0646 142.188 24.3897C141.73 24.7001 141.183 24.8552 140.548 24.8552C139.661 24.8552 138.981 24.6262 138.508 24.1681C138.036 23.7099 137.777 22.9711 137.733 21.9514Z" fill="#1F2327" fill-opacity="0.3"></path><path d="M153.542 26.9167L157.422 15.4566H154.296L151.88 23.2814H151.836L149.419 15.4566H146.117L150.04 26.9167H153.542Z" fill="#1F2327" fill-opacity="0.3"></path></svg>