<svg xmlns="http://www.w3.org/2000/svg" width="214" height="58" viewBox="0 0 214 58" fill="none"><path d="M16.4103 4.44003C19.6355 3.10418 23.0924 2.4165 26.5833 2.4165V15.7082C24.8378 15.7082 23.1094 16.0519 21.4968 16.72C19.8842 17.3879 18.4189 18.367 17.1847 19.6012C15.9505 20.8354 14.9714 22.3007 14.3035 23.9133C13.6354 25.5259 13.2917 27.2543 13.2917 28.9998H0C0 25.5089 0.687673 22.052 2.02352 18.8268C3.35953 15.6015 5.31758 12.6711 7.78603 10.2025C10.2546 7.73408 13.185 5.77603 16.4103 4.44003Z" fill="url(#paint0_linear_6426_1024)"></path><path opacity="0.8" d="M0 29C0 32.4909 0.687673 35.9478 2.02352 39.1731C3.35953 42.3983 5.31758 45.3287 7.78603 47.7973C10.2546 50.2658 13.185 52.2238 16.4103 53.5598C19.6355 54.8957 23.0924 55.5833 26.5833 55.5833C30.0743 55.5833 33.5312 54.8957 36.7564 53.5598C39.9816 52.2238 42.912 50.2658 45.3806 47.7973C47.8491 45.3287 49.8071 42.3983 51.1431 39.1731C52.479 35.9478 53.1667 32.4909 53.1667 29H39.875C39.875 30.7455 39.5312 32.4739 38.8632 34.0865C38.1952 35.6992 37.2162 37.1644 35.982 38.3987C34.7478 39.6329 33.2825 40.6119 31.6699 41.2798C30.0572 41.9479 28.3289 42.2917 26.5833 42.2917C24.8378 42.2917 23.1094 41.9479 21.4968 41.2798C19.8842 40.6119 18.4189 39.6329 17.1847 38.3987C15.9505 37.1644 14.9714 35.6992 14.3035 34.0865C13.6354 32.4739 13.2917 30.7455 13.2917 29H0Z" fill="url(#paint1_linear_6426_1024)"></path><path opacity="0.8" d="M26.5833 20.5415C21.9119 20.5415 18.125 24.3284 18.125 28.9998H35.0417C35.0417 24.3284 31.2547 20.5415 26.5833 20.5415Z" fill="url(#paint2_linear_6426_1024)"></path><path d="M26.5833 37.458C21.9119 37.458 18.125 33.6711 18.125 28.9997H35.0417C35.0417 33.6711 31.2547 37.458 26.5833 37.458Z" fill="url(#paint3_linear_6426_1024)"></path><path d="M80.737 23.4443C80.6409 22.4751 80.2284 21.7222 79.4995 21.1855C78.7706 20.6489 77.7814 20.3806 76.5318 20.3806C75.6828 20.3806 74.9659 20.5007 74.3812 20.741C73.7965 20.9733 73.348 21.2977 73.0356 21.7142C72.7312 22.1307 72.579 22.6033 72.579 23.1319C72.563 23.5725 72.6551 23.9569 72.8554 24.2853C73.0636 24.6137 73.348 24.8981 73.7084 25.1384C74.0688 25.3707 74.4853 25.5749 74.9579 25.7511C75.4305 25.9193 75.9351 26.0635 76.4718 26.1837L78.6825 26.7123C79.7558 26.9526 80.741 27.273 81.6381 27.6735C82.5352 28.074 83.3121 28.5666 83.9689 29.1513C84.6257 29.736 85.1344 30.4248 85.4948 31.2178C85.8632 32.0108 86.0515 32.9199 86.0595 33.9451C86.0515 35.451 85.667 36.7566 84.9061 37.8619C84.1532 38.9593 83.0638 39.8123 81.6381 40.421C80.2203 41.0218 78.5103 41.3221 76.5078 41.3221C74.5214 41.3221 72.7913 41.0178 71.3175 40.409C69.8517 39.8003 68.7063 38.8992 67.8813 37.7057C67.0643 36.5043 66.6358 35.0184 66.5957 33.2483H71.6299C71.6859 34.0733 71.9222 34.7621 72.3387 35.3148C72.7632 35.8595 73.3279 36.272 74.0328 36.5523C74.7457 36.8247 75.5506 36.9608 76.4477 36.9608C77.3288 36.9608 78.0938 36.8327 78.7425 36.5763C79.3993 36.32 79.908 35.9636 80.2684 35.507C80.6288 35.0505 80.8091 34.5258 80.8091 33.9331C80.8091 33.3804 80.6449 32.9159 80.3165 32.5394C79.9961 32.163 79.5235 31.8426 78.8987 31.5782C78.282 31.3139 77.5251 31.0736 76.628 30.8574L73.9487 30.1845C71.8742 29.6799 70.2362 28.891 69.0347 27.8176C67.8332 26.7443 67.2365 25.2986 67.2445 23.4803C67.2365 21.9905 67.633 20.6889 68.4339 19.5756C69.2429 18.4622 70.3523 17.5932 71.762 16.9684C73.1717 16.3436 74.7737 16.0312 76.5679 16.0312C78.3941 16.0312 79.9881 16.3436 81.3497 16.9684C82.7194 17.5932 83.7847 18.4622 84.5456 19.5756C85.3066 20.6889 85.699 21.9785 85.7231 23.4443H80.737Z" fill="#1F2327"></path><path d="M97.8729 41.3342C95.9746 41.3342 94.3406 40.9497 92.9709 40.1808C91.6093 39.4038 90.56 38.3065 89.8231 36.8887C89.0862 35.463 88.7177 33.7769 88.7177 31.8306C88.7177 29.9322 89.0862 28.2662 89.8231 26.8324C90.56 25.3987 91.5972 24.2813 92.9349 23.4803C94.2805 22.6794 95.8585 22.2789 97.6687 22.2789C98.8862 22.2789 100.02 22.4751 101.069 22.8676C102.126 23.2521 103.047 23.8328 103.832 24.6097C104.625 25.3867 105.242 26.3639 105.682 27.5413C106.123 28.7107 106.343 30.0804 106.343 31.6503V33.056H90.7602V29.8842H101.525C101.525 29.1473 101.365 28.4945 101.045 27.9258C100.724 27.3571 100.28 26.9125 99.7112 26.5922C99.1505 26.2638 98.4977 26.0996 97.7528 26.0996C96.9758 26.0996 96.287 26.2798 95.6862 26.6402C95.0935 26.9926 94.629 27.4692 94.2925 28.07C93.9561 28.6627 93.7839 29.3235 93.7759 30.0524V33.0681C93.7759 33.9812 93.9441 34.7701 94.2805 35.435C94.6249 36.0998 95.1095 36.6124 95.7343 36.9728C96.3591 37.3333 97.1 37.5135 97.957 37.5135C98.5257 37.5135 99.0463 37.4334 99.5189 37.2732C99.9915 37.113 100.396 36.8727 100.732 36.5523C101.069 36.2319 101.325 35.8394 101.501 35.3749L106.235 35.6873C105.995 36.8247 105.502 37.8179 104.757 38.6669C104.02 39.5079 103.067 40.1647 101.898 40.6373C100.736 41.1019 99.3948 41.3342 97.8729 41.3342Z" fill="#1F2327"></path><path d="M117.998 48.2786C116.339 48.2786 114.918 48.0504 113.732 47.5938C112.555 47.1453 111.618 46.5325 110.921 45.7556C110.224 44.9786 109.771 44.1055 109.563 43.1364L114.297 42.4996C114.441 42.868 114.669 43.2125 114.982 43.5328C115.294 43.8532 115.707 44.1096 116.219 44.3018C116.74 44.502 117.373 44.6022 118.118 44.6022C119.231 44.6022 120.148 44.3298 120.869 43.7852C121.598 43.2485 121.962 42.3474 121.962 41.0819V37.7057H121.746C121.522 38.2184 121.185 38.7029 120.737 39.1595C120.288 39.6161 119.712 39.9885 119.007 40.2769C118.302 40.5652 117.461 40.7094 116.484 40.7094C115.098 40.7094 113.836 40.389 112.699 39.7482C111.57 39.0994 110.669 38.1102 109.996 36.7806C109.331 35.443 108.999 33.7529 108.999 31.7104C108.999 29.6199 109.339 27.8737 110.02 26.472C110.701 25.0703 111.606 24.021 112.735 23.3242C113.872 22.6273 115.118 22.2789 116.472 22.2789C117.505 22.2789 118.37 22.4551 119.067 22.8075C119.764 23.1519 120.324 23.5845 120.749 24.1051C121.181 24.6177 121.514 25.1224 121.746 25.619H121.938V22.5192H127.021V41.1539C127.021 42.7239 126.636 44.0375 125.867 45.0948C125.098 46.152 124.033 46.945 122.671 47.4737C121.318 48.0103 119.76 48.2786 117.998 48.2786ZM118.106 36.8647C118.931 36.8647 119.627 36.6604 120.196 36.252C120.773 35.8354 121.213 35.2427 121.518 34.4738C121.83 33.6968 121.986 32.7677 121.986 31.6864C121.986 30.6051 121.834 29.6679 121.53 28.8749C121.225 28.074 120.785 27.4532 120.208 27.0127C119.632 26.5721 118.931 26.3519 118.106 26.3519C117.265 26.3519 116.556 26.5801 115.979 27.0367C115.402 27.4852 114.966 28.11 114.669 28.911C114.373 29.712 114.225 30.6371 114.225 31.6864C114.225 32.7517 114.373 33.6728 114.669 34.4498C114.974 35.2187 115.41 35.8154 115.979 36.2399C116.556 36.6564 117.265 36.8647 118.106 36.8647Z" fill="#1F2327"></path><path d="M131.094 40.9737V22.5192H135.971V25.7752H136.188C136.572 24.6938 137.213 23.8408 138.11 23.216C139.007 22.5913 140.08 22.2789 141.33 22.2789C142.596 22.2789 143.673 22.5953 144.562 23.228C145.451 23.8528 146.044 24.7018 146.34 25.7752H146.532C146.909 24.7179 147.59 23.8728 148.575 23.2401C149.568 22.5993 150.742 22.2789 152.095 22.2789C153.817 22.2789 155.215 22.8276 156.288 23.9249C157.37 25.0142 157.91 26.5601 157.91 28.5626V40.9737H152.804V29.5718C152.804 28.5465 152.532 27.7776 151.987 27.265C151.442 26.7523 150.762 26.496 149.945 26.496C149.015 26.496 148.291 26.7924 147.77 27.3851C147.249 27.9698 146.989 28.7428 146.989 29.704V40.9737H142.027V29.4637C142.027 28.5586 141.767 27.8377 141.246 27.301C140.733 26.7644 140.056 26.496 139.215 26.496C138.647 26.496 138.134 26.6402 137.678 26.9286C137.229 27.2089 136.873 27.6054 136.608 28.118C136.344 28.6226 136.212 29.2154 136.212 29.8962V40.9737H131.094Z" fill="#1F2327"></path><path d="M170.363 41.3342C168.465 41.3342 166.831 40.9497 165.461 40.1808C164.1 39.4038 163.051 38.3065 162.314 36.8887C161.577 35.463 161.208 33.7769 161.208 31.8306C161.208 29.9322 161.577 28.2662 162.314 26.8324C163.051 25.3987 164.088 24.2813 165.425 23.4803C166.771 22.6794 168.349 22.2789 170.159 22.2789C171.377 22.2789 172.51 22.4751 173.559 22.8676C174.617 23.2521 175.538 23.8328 176.323 24.6097C177.116 25.3867 177.732 26.3639 178.173 27.5413C178.614 28.7107 178.834 30.0804 178.834 31.6503V33.056H163.251V29.8842H174.016C174.016 29.1473 173.856 28.4945 173.535 27.9258C173.215 27.3571 172.77 26.9125 172.202 26.5922C171.641 26.2638 170.988 26.0996 170.243 26.0996C169.466 26.0996 168.778 26.2798 168.177 26.6402C167.584 26.9926 167.12 27.4692 166.783 28.07C166.447 28.6627 166.274 29.3235 166.266 30.0524V33.0681C166.266 33.9812 166.435 34.7701 166.771 35.435C167.116 36.0998 167.6 36.6124 168.225 36.9728C168.85 37.3333 169.591 37.5135 170.448 37.5135C171.016 37.5135 171.537 37.4334 172.009 37.2732C172.482 37.113 172.887 36.8727 173.223 36.5523C173.559 36.2319 173.816 35.8394 173.992 35.3749L178.726 35.6873C178.485 36.8247 177.993 37.8179 177.248 38.6669C176.511 39.5079 175.558 40.1647 174.388 40.6373C173.227 41.1019 171.885 41.3342 170.363 41.3342Z" fill="#1F2327"></path><path d="M187.292 30.3047V40.9737H182.174V22.5192H187.052V25.7752H187.268C187.677 24.7018 188.361 23.8528 189.323 23.228C190.284 22.5953 191.449 22.2789 192.819 22.2789C194.1 22.2789 195.218 22.5592 196.171 23.1199C197.124 23.6806 197.865 24.4816 198.394 25.5228C198.922 26.5561 199.187 27.7896 199.187 29.2234V40.9737H194.068V30.1365C194.076 29.0071 193.788 28.126 193.203 27.4933C192.619 26.8525 191.814 26.5321 190.788 26.5321C190.1 26.5321 189.491 26.6803 188.962 26.9766C188.442 27.273 188.033 27.7055 187.737 28.2742C187.448 28.8349 187.3 29.5117 187.292 30.3047Z" fill="#1F2327"></path><path d="M213.037 22.5192V26.3639H201.923V22.5192H213.037ZM204.446 18.0978H209.564V35.3028C209.564 35.7754 209.636 36.1438 209.781 36.4081C209.925 36.6645 210.125 36.8447 210.381 36.9488C210.646 37.0529 210.95 37.105 211.294 37.105C211.535 37.105 211.775 37.085 212.015 37.0449C212.256 36.9969 212.44 36.9608 212.568 36.9368L213.373 40.7454C213.117 40.8255 212.756 40.9177 212.292 41.0218C211.827 41.1339 211.262 41.202 210.598 41.226C209.364 41.2741 208.283 41.1099 207.354 40.7334C206.433 40.357 205.716 39.7723 205.203 38.9793C204.69 38.1863 204.438 37.1851 204.446 35.9756V18.0978Z" fill="#1F2327"></path><defs><linearGradient id="paint0_linear_6426_1024" x1="0" y1="15.7082" x2="26.5833" y2="15.7082" gradientUnits="userSpaceOnUse"><stop stop-color="#FDD320"></stop><stop offset="1" stop-color="#F72B61"></stop></linearGradient><linearGradient id="paint1_linear_6426_1024" x1="0" y1="42.2917" x2="53.1667" y2="42.2917" gradientUnits="userSpaceOnUse"><stop stop-color="#FDD320"></stop><stop offset="1" stop-color="#F72B61"></stop></linearGradient><linearGradient id="paint2_linear_6426_1024" x1="18.125" y1="24.7707" x2="35.0417" y2="24.7707" gradientUnits="userSpaceOnUse"><stop stop-color="#FDD320"></stop><stop offset="1" stop-color="#F72B61"></stop></linearGradient><linearGradient id="paint3_linear_6426_1024" x1="18.125" y1="33.2288" x2="35.0417" y2="33.2288" gradientUnits="userSpaceOnUse"><stop stop-color="#FDD320"></stop><stop offset="1" stop-color="#F72B61"></stop></linearGradient></defs></svg>