<svg xmlns="http://www.w3.org/2000/svg" width="187" height="53" viewBox="0 0 187 53" fill="none"><rect y="21.2002" width="10.6" height="10.6" fill="#086AD8"></rect><rect x="31.7998" y="31.7998" width="10.6" height="10.6" transform="rotate(180 31.7998 31.7998)" fill="#086AD8"></rect><path opacity="0.4" d="M10.6001 21.2001L21.2001 10.6001V21.2001L10.6001 31.8001V21.2001Z" fill="#086AD8"></path><path opacity="0.6" d="M21.2002 31.7999L10.6002 42.3999L10.6002 31.7999L21.2002 21.1999L21.2002 31.7999Z" fill="#086AD8"></path><path opacity="0.8" d="M0 21.2L21.2 0V10.6L10.6 21.2H0Z" fill="#086AD8"></path><path opacity="0.8" d="M31.7998 31.8L10.5998 53L10.5998 42.4L21.1998 31.8L31.7998 31.8Z" fill="#086AD8"></path><path d="M54.886 37.8507C53.2165 37.8507 51.5986 37.6136 50.0321 37.1396C48.4863 36.6655 47.2599 36.0369 46.353 35.2537L47.7443 32.1311C48.6306 32.8319 49.7126 33.409 50.9905 33.8624C52.289 34.2952 53.5875 34.5117 54.886 34.5117C56.4937 34.5117 57.6891 34.254 58.4724 33.7387C59.2762 33.2235 59.6781 32.5433 59.6781 31.6982C59.6781 31.0799 59.4514 30.5749 58.9979 30.1833C58.5651 29.7711 58.0086 29.4516 57.3284 29.2249C56.6483 28.9982 55.7208 28.7406 54.5459 28.452C52.8971 28.0604 51.5573 27.6688 50.5268 27.2772C49.5168 26.8856 48.6409 26.2775 47.8989 25.4531C47.1775 24.608 46.8168 23.4744 46.8168 22.0522C46.8168 20.8568 47.1362 19.7747 47.7752 18.806C48.4347 17.8167 49.4138 17.0334 50.7123 16.4563C52.0314 15.8792 53.6391 15.5907 55.5353 15.5907C56.8544 15.5907 58.1529 15.7556 59.4308 16.0853C60.7087 16.4151 61.8114 16.8892 62.7389 17.5075L61.4713 20.6301C60.5232 20.0736 59.5338 19.6511 58.5033 19.3625C57.4727 19.0739 56.4731 18.9297 55.5044 18.9297C53.9173 18.9297 52.7322 19.1976 51.9489 19.7335C51.1863 20.2694 50.805 20.9805 50.805 21.8667C50.805 22.4851 51.0214 22.9901 51.4543 23.3817C51.9077 23.7733 52.4745 24.0824 53.1547 24.3092C53.8349 24.5359 54.7624 24.7935 55.9372 25.0821C57.5449 25.4531 58.864 25.8447 59.8945 26.2569C60.9251 26.6485 61.8011 27.2566 62.5224 28.081C63.2644 28.9054 63.6354 30.0184 63.6354 31.42C63.6354 32.6154 63.3057 33.6975 62.6461 34.6662C62.0072 35.635 61.0281 36.4079 59.709 36.985C58.3899 37.5621 56.7822 37.8507 54.886 37.8507Z" fill="#1F2327"></path><path d="M67.2498 21.032H71.1144V37.5415H67.2498V21.032ZM69.1975 18.3113C68.4968 18.3113 67.9093 18.0949 67.4353 17.6621C66.9612 17.2086 66.7242 16.6521 66.7242 15.9926C66.7242 15.333 66.9612 14.7868 67.4353 14.354C67.9093 13.9005 68.4968 13.6738 69.1975 13.6738C69.8983 13.6738 70.4857 13.8902 70.9598 14.3231C71.4338 14.7353 71.6709 15.2609 71.6709 15.8998C71.6709 16.58 71.4338 17.1571 70.9598 17.6312C70.5063 18.0846 69.9189 18.3113 69.1975 18.3113Z" fill="#1F2327"></path><path d="M81.2879 37.7579C79.9482 37.7579 78.6394 37.5827 77.3615 37.2323C76.0836 36.8819 75.0633 36.4388 74.3007 35.9029L75.7847 32.9658C76.5267 33.4605 77.413 33.8624 78.4436 34.1716C79.4947 34.4601 80.5253 34.6044 81.5352 34.6044C83.8437 34.6044 84.9979 33.9964 84.9979 32.7803C84.9979 32.2032 84.699 31.8013 84.1013 31.5746C83.5242 31.3479 82.5864 31.1314 81.2879 30.9253C79.9276 30.7192 78.8145 30.4822 77.9489 30.2142C77.1038 29.9463 76.3618 29.4826 75.7229 28.823C75.1046 28.1428 74.7954 27.205 74.7954 26.0096C74.7954 24.4431 75.4446 23.1962 76.7431 22.2687C78.0622 21.3206 79.8348 20.8465 82.0608 20.8465C83.1944 20.8465 84.328 20.9805 85.4616 21.2484C86.5952 21.4957 87.5227 21.8358 88.2441 22.2687L86.7601 25.2057C85.3586 24.3813 83.7818 23.9691 82.0299 23.9691C80.8963 23.9691 80.0306 24.1443 79.4329 24.4947C78.8558 24.8244 78.5672 25.2676 78.5672 25.8241C78.5672 26.4424 78.8764 26.8856 79.4947 27.1535C80.1337 27.4008 81.1127 27.6379 82.4318 27.8646C83.7509 28.0707 84.833 28.3077 85.6781 28.5757C86.5231 28.8436 87.2445 29.2971 87.8422 29.936C88.4605 30.5749 88.7697 31.4818 88.7697 32.6567C88.7697 34.2025 88.0999 35.4392 86.7601 36.3667C85.4204 37.2942 83.5963 37.7579 81.2879 37.7579Z" fill="#1F2327"></path><path d="M107.254 21.032L99.5251 38.8709C98.8037 40.6641 97.9277 41.9214 96.8972 42.6427C95.8666 43.3847 94.6196 43.7557 93.1563 43.7557C92.3318 43.7557 91.5177 43.6218 90.7138 43.3538C89.91 43.0859 89.2505 42.7149 88.7352 42.2408L90.281 39.3965C90.652 39.7469 91.0848 40.0251 91.5795 40.2312C92.0948 40.4374 92.6101 40.5404 93.1253 40.5404C93.8055 40.5404 94.362 40.3652 94.7948 40.0148C95.2483 39.6644 95.6605 39.077 96.0315 38.2526L96.3098 37.6033L89.1062 21.032H93.1253L98.3193 33.2441L103.544 21.032H107.254Z" fill="#1F2327"></path><path d="M118.821 20.8465C120.429 20.8465 121.861 21.1969 123.118 21.8977C124.396 22.5984 125.396 23.5878 126.117 24.8657C126.839 26.1436 127.199 27.6172 127.199 29.2867C127.199 30.9562 126.839 32.4402 126.117 33.7387C125.396 35.0166 124.396 36.006 123.118 36.7067C121.861 37.4075 120.429 37.7579 118.821 37.7579C116.595 37.7579 114.833 37.0159 113.534 35.5319V43.5393H109.67V21.032H113.349V23.1962C113.988 22.4129 114.771 21.8255 115.698 21.4339C116.646 21.0423 117.687 20.8465 118.821 20.8465ZM118.388 34.4498C119.81 34.4498 120.975 33.9758 121.882 33.0277C122.809 32.0796 123.273 30.8326 123.273 29.2867C123.273 27.7409 122.809 26.4939 121.882 25.5458C120.975 24.5977 119.81 24.1237 118.388 24.1237C117.461 24.1237 116.626 24.3401 115.884 24.7729C115.142 25.1851 114.554 25.7829 114.122 26.5661C113.689 27.3493 113.472 28.2562 113.472 29.2867C113.472 30.3173 113.689 31.2242 114.122 32.0074C114.554 32.7906 115.142 33.3987 115.884 33.8315C116.626 34.2437 117.461 34.4498 118.388 34.4498Z" fill="#1F2327"></path><path d="M140.232 20.8465C142.314 20.8465 143.983 21.4545 145.241 22.6706C146.498 23.8866 147.127 25.6901 147.127 28.081V37.5415H143.262V28.5757C143.262 27.1329 142.922 26.0508 142.242 25.3294C141.562 24.5874 140.593 24.2164 139.336 24.2164C137.913 24.2164 136.79 24.6492 135.966 25.5149C135.141 26.36 134.729 27.5863 134.729 29.194V37.5415H130.864V14.6013H134.729V22.9488C135.368 22.2687 136.151 21.7534 137.079 21.403C138.027 21.032 139.078 20.8465 140.232 20.8465Z" fill="#1F2327"></path><path d="M168.013 21.032V37.5415H164.334V35.4392C163.716 36.1812 162.943 36.7583 162.015 37.1705C161.088 37.5621 160.088 37.7579 159.016 37.7579C156.811 37.7579 155.069 37.1499 153.791 35.9338C152.534 34.6972 151.905 32.8731 151.905 30.4616V21.032H155.77V29.936C155.77 31.42 156.1 32.533 156.759 33.275C157.439 33.9964 158.398 34.3571 159.635 34.3571C161.015 34.3571 162.108 33.9346 162.912 33.0895C163.736 32.2238 164.148 30.9872 164.148 29.3795V21.032H168.013Z" fill="#1F2327"></path><path d="M178.174 37.7579C176.834 37.7579 175.526 37.5827 174.248 37.2323C172.97 36.8819 171.95 36.4388 171.187 35.9029L172.671 32.9658C173.413 33.4605 174.299 33.8624 175.33 34.1716C176.381 34.4601 177.412 34.6044 178.421 34.6044C180.73 34.6044 181.884 33.9964 181.884 32.7803C181.884 32.2032 181.585 31.8013 180.988 31.5746C180.41 31.3479 179.473 31.1314 178.174 30.9253C176.814 30.7192 175.701 30.4822 174.835 30.2142C173.99 29.9463 173.248 29.4826 172.609 28.823C171.991 28.1428 171.682 27.205 171.682 26.0096C171.682 24.4431 172.331 23.1962 173.629 22.2687C174.949 21.3206 176.721 20.8465 178.947 20.8465C180.081 20.8465 181.214 20.9805 182.348 21.2484C183.482 21.4957 184.409 21.8358 185.13 22.2687L183.646 25.2057C182.245 24.3813 180.668 23.9691 178.916 23.9691C177.783 23.9691 176.917 24.1443 176.319 24.4947C175.742 24.8244 175.453 25.2676 175.453 25.8241C175.453 26.4424 175.763 26.8856 176.381 27.1535C177.02 27.4008 177.999 27.6379 179.318 27.8646C180.637 28.0707 181.719 28.3077 182.564 28.5757C183.409 28.8436 184.131 29.2971 184.728 29.936C185.347 30.5749 185.656 31.4818 185.656 32.6567C185.656 34.2025 184.986 35.4392 183.646 36.3667C182.307 37.2942 180.483 37.7579 178.174 37.7579Z" fill="#1F2327"></path></svg>