<svg xmlns="http://www.w3.org/2000/svg" width="226" height="58" viewBox="0 0 226 58" fill="none"><path opacity="0.8" fill-rule="evenodd" clip-rule="evenodd" d="M26.5833 44.0637C34.9029 44.0637 41.6472 37.3194 41.6472 28.9998C41.6472 20.6803 34.9029 13.9359 26.5833 13.9359C18.2638 13.9359 11.5194 20.6803 11.5194 28.9998C11.5194 37.3194 18.2638 44.0637 26.5833 44.0637ZM26.5833 55.5832C41.2649 55.5832 53.1667 43.6814 53.1667 28.9998C53.1667 14.3183 41.2649 2.4165 26.5833 2.4165C11.9018 2.4165 0 14.3183 0 28.9998C0 43.6814 11.9018 55.5832 26.5833 55.5832Z" fill="url(#paint0_linear_6426_1001)"></path><path opacity="0.6" d="M26.8873 29.5819C29.6557 26.8136 34.1441 26.8136 36.9125 29.5819L50.6971 43.3666C53.4655 46.135 53.4655 50.6234 50.6972 53.3918C47.9288 56.1602 43.4403 56.1602 40.6719 53.3918L26.8873 39.6071C24.1189 36.8388 24.1189 32.3503 26.8873 29.5819Z" fill="url(#paint1_linear_6426_1001)"></path><path d="M30.7578 43.4779L39.5126 52.2327C43.7118 49.8908 47.2103 46.4434 49.6144 42.2841L40.9314 33.6011C39.4062 38.3612 35.5779 42.0905 30.7578 43.4779Z" fill="url(#paint2_linear_6426_1001)"></path><path d="M96.0868 43.6209C95.3199 44.5682 94.3839 45.29 93.2787 45.7862C92.196 46.2824 91.0006 46.5305 89.6923 46.5305C87.933 46.5305 86.3428 46.1471 84.9218 45.3802C83.5008 44.6359 81.8768 43.3051 80.0498 41.3879C77.9071 41.1172 75.9898 40.4293 74.2982 39.324C72.6291 38.2188 71.3208 36.7978 70.3735 35.061C69.4487 33.3017 68.9863 31.3619 68.9863 29.2417C68.9863 26.9185 69.5389 24.8321 70.6442 22.9825C71.7719 21.1104 73.317 19.6443 75.2793 18.5842C77.2642 17.5241 79.4859 16.994 81.9445 16.994C84.4031 16.994 86.6135 17.5241 88.5758 18.5842C90.5382 19.6443 92.0832 21.1104 93.211 22.9825C94.3388 24.8321 94.9027 26.9185 94.9027 29.2417C94.9027 31.9935 94.1245 34.4069 92.5682 36.482C91.0344 38.5572 88.9931 40.0007 86.4443 40.8127C87.0082 41.3992 87.5496 41.8164 88.0683 42.0645C88.6097 42.3352 89.1848 42.4705 89.7938 42.4705C91.2599 42.4705 92.5456 41.8841 93.6508 40.7112L96.0868 43.6209ZM74.535 29.2417C74.535 30.7078 74.8508 32.016 75.4823 33.1664C76.1364 34.3167 77.0274 35.2189 78.1552 35.873C79.2829 36.5046 80.5461 36.8204 81.9445 36.8204C83.3429 36.8204 84.6061 36.5046 85.7338 35.873C86.8616 35.2189 87.7413 34.3167 88.3728 33.1664C89.0269 32.016 89.354 30.7078 89.354 29.2417C89.354 27.7756 89.0269 26.4674 88.3728 25.317C87.7413 24.1667 86.8616 23.2758 85.7338 22.6442C84.6061 21.9901 83.3429 21.663 81.9445 21.663C80.5461 21.663 79.2829 21.9901 78.1552 22.6442C77.0274 23.2758 76.1364 24.1667 75.4823 25.317C74.8508 26.4674 74.535 27.7756 74.535 29.2417Z" fill="#1F2327"></path><path d="M116.987 22.881V41.0834H111.98V38.918C111.281 39.7075 110.446 40.3165 109.476 40.745C108.506 41.151 107.458 41.354 106.33 41.354C103.939 41.354 102.044 40.6661 100.646 39.2902C99.2474 37.9143 98.5482 35.873 98.5482 33.1664V22.881H103.826V32.3882C103.826 35.3204 105.055 36.7865 107.514 36.7865C108.777 36.7865 109.792 36.3805 110.559 35.5685C111.326 34.734 111.709 33.5047 111.709 31.8807V22.881H116.987Z" fill="#1F2327"></path><path d="M130.538 41.354C128.621 41.354 126.896 40.9593 125.362 40.1699C123.851 39.3579 122.667 38.2414 121.809 36.8204C120.952 35.3994 120.524 33.7867 120.524 31.9822C120.524 30.1778 120.952 28.565 121.809 27.144C122.667 25.723 123.851 24.6178 125.362 23.8284C126.896 23.0164 128.621 22.6104 130.538 22.6104C132.456 22.6104 134.17 23.0164 135.681 23.8284C137.192 24.6178 138.376 25.723 139.234 27.144C140.091 28.565 140.519 30.1778 140.519 31.9822C140.519 33.7867 140.091 35.3994 139.234 36.8204C138.376 38.2414 137.192 39.3579 135.681 40.1699C134.17 40.9593 132.456 41.354 130.538 41.354ZM130.538 37.0234C131.892 37.0234 132.997 36.5723 133.854 35.67C134.734 34.7453 135.174 33.516 135.174 31.9822C135.174 30.4484 134.734 29.2304 133.854 28.3282C132.997 27.4034 131.892 26.941 130.538 26.941C129.185 26.941 128.069 27.4034 127.189 28.3282C126.309 29.2304 125.869 30.4484 125.869 31.9822C125.869 33.516 126.309 34.7453 127.189 35.67C128.069 36.5723 129.185 37.0234 130.538 37.0234Z" fill="#1F2327"></path><path d="M155.787 40.2037C155.269 40.5872 154.626 40.8804 153.859 41.0834C153.115 41.2638 152.325 41.354 151.491 41.354C149.325 41.354 147.645 40.8014 146.449 39.6962C145.276 38.591 144.69 36.967 144.69 34.8242V27.347H141.882V23.287H144.69V18.8549H149.968V23.287H154.502V27.347H149.968V34.7565C149.968 35.5234 150.16 36.1212 150.543 36.5497C150.949 36.9557 151.513 37.1587 152.235 37.1587C153.069 37.1587 153.78 36.9332 154.366 36.482L155.787 40.2037Z" fill="#1F2327"></path><path d="M158.75 22.881H164.028V41.0834H158.75V22.881ZM161.389 20.3435C160.419 20.3435 159.63 20.0616 159.021 19.4977C158.412 18.9338 158.107 18.2346 158.107 17.4C158.107 16.5655 158.412 15.8663 159.021 15.3024C159.63 14.7385 160.419 14.4565 161.389 14.4565C162.359 14.4565 163.148 14.7272 163.757 15.2685C164.366 15.8099 164.671 16.4865 164.671 17.2985C164.671 18.1782 164.366 18.9113 163.757 19.4977C163.148 20.0616 162.359 20.3435 161.389 20.3435Z" fill="#1F2327"></path><path d="M186.757 32.0499C186.757 32.1175 186.723 32.5912 186.655 33.4709H172.885C173.133 34.5987 173.72 35.4896 174.644 36.1437C175.569 36.7978 176.72 37.1249 178.095 37.1249C179.043 37.1249 179.877 36.9895 180.599 36.7189C181.343 36.4257 182.031 35.9745 182.663 35.3655L185.471 38.4105C183.757 40.3729 181.253 41.354 177.96 41.354C175.908 41.354 174.092 40.9593 172.513 40.1699C170.934 39.3579 169.716 38.2414 168.859 36.8204C168.002 35.3994 167.573 33.7867 167.573 31.9822C167.573 30.2003 167.991 28.5989 168.825 27.1779C169.682 25.7343 170.844 24.6178 172.31 23.8284C173.799 23.0164 175.456 22.6104 177.283 22.6104C179.065 22.6104 180.678 22.9938 182.122 23.7607C183.565 24.5276 184.693 25.6328 185.505 27.0764C186.339 28.4974 186.757 30.1552 186.757 32.0499ZM177.317 26.6027C176.122 26.6027 175.118 26.941 174.306 27.6177C173.494 28.2944 172.998 29.2192 172.817 30.392H181.783C181.603 29.2417 181.107 28.3282 180.295 27.6515C179.483 26.9523 178.49 26.6027 177.317 26.6027Z" fill="#1F2327"></path><path d="M201.334 22.6104C203.59 22.6104 205.405 23.287 206.781 24.6404C208.18 25.9937 208.879 28.0012 208.879 30.6627V41.0834H203.601V31.4747C203.601 30.0312 203.285 28.9598 202.654 28.2605C202.022 27.5388 201.109 27.1779 199.913 27.1779C198.582 27.1779 197.522 27.5952 196.733 28.4297C195.943 29.2417 195.549 30.4597 195.549 32.0837V41.0834H190.271V22.881H195.312V25.0125C196.011 24.2457 196.879 23.6592 197.917 23.2532C198.955 22.8247 200.094 22.6104 201.334 22.6104Z" fill="#1F2327"></path><path d="M225.403 40.2037C224.885 40.5872 224.242 40.8804 223.475 41.0834C222.731 41.2638 221.941 41.354 221.107 41.354C218.941 41.354 217.261 40.8014 216.065 39.6962C214.892 38.591 214.306 36.967 214.306 34.8242V27.347H211.498V23.287H214.306V18.8549H219.584V23.287H224.118V27.347H219.584V34.7565C219.584 35.5234 219.776 36.1212 220.159 36.5497C220.565 36.9557 221.129 37.1587 221.851 37.1587C222.685 37.1587 223.396 36.9332 223.982 36.482L225.403 40.2037Z" fill="#1F2327"></path><defs><linearGradient id="paint0_linear_6426_1001" x1="0" y1="28.9998" x2="53.1667" y2="28.9998" gradientUnits="userSpaceOnUse"><stop stop-color="#FDD320"></stop><stop offset="1" stop-color="#F72B61"></stop></linearGradient><linearGradient id="paint1_linear_6426_1001" x1="26.8873" y1="29.5819" x2="50.6972" y2="53.3918" gradientUnits="userSpaceOnUse"><stop stop-color="#FDD320"></stop><stop offset="1" stop-color="#F72B61"></stop></linearGradient><linearGradient id="paint2_linear_6426_1001" x1="30.7578" y1="42.9169" x2="49.6144" y2="42.9169" gradientUnits="userSpaceOnUse"><stop stop-color="#FDD320"></stop><stop offset="1" stop-color="#F72B61"></stop></linearGradient></defs></svg>