<svg xmlns="http://www.w3.org/2000/svg" width="60" height="36" viewBox="0 0 60 36" fill="none"><path d="M52.6626 0.658203H6.0489C3.09559 0.658203 0.701782 3.0522 0.701782 6.00532V23.5566C0.701782 26.5099 3.09596 28.9037 6.0489 28.9037H28.2327L38.0645 34.6159L36.101 28.9037H52.6626C55.6159 28.9037 58.0097 26.5097 58.0097 23.5566V6.00532C58.0099 3.05201 55.6157 0.658203 52.6626 0.658203Z" fill="#9C5A90"></path><path d="M9.03594 26.2351C9.02787 26.2351 9.02019 26.2351 9.01231 26.2349C8.36956 26.2272 7.77125 25.906 7.40975 25.3744C6.83881 24.5348 6.00182 22.5991 4.58619 15.0198C3.82738 10.9574 3.25701 7.13167 3.25139 7.09361C3.09164 6.01924 3.8332 5.01911 4.90757 4.85936C5.98119 4.69943 6.98206 5.44099 7.14181 6.51555C7.14725 6.55286 7.70488 10.291 8.44681 14.2677C8.87544 16.5648 9.242 18.2783 9.5465 19.5533C11.4009 16.136 13.6644 11.5404 14.6607 9.46492C15.0256 8.70517 15.8337 8.26229 16.6711 8.36411C17.5081 8.46592 18.1867 9.08973 18.3588 9.91492C18.6845 11.4727 19.5282 14.7164 20.7269 17.6605C21.169 13.4746 22.0246 8.16236 23.6557 4.81868C24.1317 3.84255 25.3092 3.43718 26.2853 3.91343C27.2615 4.38968 27.6668 5.56699 27.1906 6.54311C24.5971 11.8598 24.2088 23.9712 24.205 24.0931C24.1818 24.8776 23.6943 25.573 22.9649 25.8623C22.2353 26.1518 21.4038 25.9801 20.8488 25.4251C19.0869 23.6631 17.4807 20.6268 16.0747 16.4003C16.0139 16.2175 15.9549 16.0366 15.8973 15.8579C14.1734 19.2888 11.9073 23.6358 10.6351 25.4136C10.2654 25.9293 9.66969 26.2351 9.03594 26.2351Z" fill="white"></path><path d="M39.5648 9.63907C38.7458 7.97576 37.3392 6.82563 35.5015 6.31432C33.4052 5.73251 31.1344 6.50632 29.4261 8.38713C27.3983 10.6146 25.9191 14.7897 27.847 19.8209C29.1675 23.269 31.2443 23.9018 32.5862 23.9018C32.7312 23.9018 32.8664 23.8939 32.9918 23.8823C36.5633 23.5433 39.5629 18.8177 40.1408 15.5774C40.5561 13.2557 40.3622 11.2574 39.5648 9.63907ZM36.2695 14.8857C36.0872 15.8986 35.4544 17.2386 34.6532 18.2985C33.8303 19.3898 33.0231 19.9287 32.6215 19.9658C32.3766 19.9892 31.9221 19.4642 31.5205 18.414C30.7133 16.3099 30.4429 13.1125 32.3355 11.0318C32.8997 10.4108 33.5562 10.06 34.1204 10.06C34.234 10.06 34.3437 10.0737 34.4475 10.1031C36.5535 10.6891 36.6004 13.0264 36.2695 14.8857Z" fill="white"></path><path d="M54.1744 9.63907C53.763 8.80844 53.2065 8.10307 52.5247 7.5447C51.8391 6.98632 51.0279 6.57101 50.109 6.31432C48.0146 5.73251 45.744 6.50632 44.0336 8.38713C42.0079 10.6146 40.5287 14.7897 42.4545 19.8209C43.7751 23.269 45.8518 23.9018 47.1938 23.9018C47.3387 23.9018 47.4759 23.8939 47.6012 23.8823C51.1708 23.5433 54.1702 18.8177 54.7483 15.5774C55.1638 13.2557 54.9697 11.2574 54.1744 9.63907ZM50.877 14.8857C50.6968 15.8986 50.0619 17.2386 49.2626 18.2985C48.4378 19.3898 47.6306 19.9287 47.229 19.9658C46.986 19.9892 46.5296 19.4642 46.128 18.414C45.3227 16.3099 45.0525 13.1125 46.9431 11.0318C47.5093 10.4108 48.1656 10.06 48.7279 10.06C48.8415 10.06 48.9512 10.0737 49.0569 10.1031C51.1631 10.6891 51.2081 13.0264 50.877 14.8857Z" fill="white"></path></svg>