<svg xmlns="http://www.w3.org/2000/svg" width="166" height="58" viewBox="0 0 166 58" fill="none"><path opacity="0.8" d="M24.811 37.8612C34.5987 37.8612 42.5332 29.9267 42.5332 20.139C42.5332 10.3513 34.5987 2.41675 24.811 2.41675H-0.00012207V37.8612H24.811Z" fill="#5B43C4"></path><path opacity="0.6" d="M-0.00012207 2.41675L42.5332 55.5834H14.1776L-0.00012207 37.8612V2.41675Z" fill="#5B43C4"></path><path d="M28.1102 37.5547C27.0412 37.7559 25.9384 37.8612 24.811 37.8612H-0.00012207V2.41675L28.1102 37.5547Z" fill="#5B43C4"></path><path d="M68.5299 36.93C73.8999 36.93 77.7699 33.9 78.1599 29.4H73.6599C73.2999 31.56 71.2299 33.03 68.5299 33.03C65.1399 33.03 62.5299 30.69 62.5299 26.19C62.5299 21.69 65.1399 19.32 68.5299 19.32C71.1699 19.32 73.2399 20.79 73.5399 22.98H78.2499C77.6799 18.45 73.8099 15.45 68.5299 15.45C62.9199 15.45 57.9999 19.11 57.9999 26.19C57.9999 33.27 62.8299 36.93 68.5299 36.93Z" fill="#1F2327"></path><path d="M86.5111 21.33C82.3711 21.33 79.9111 23.76 79.7311 26.79H83.4511C83.5111 25.53 84.4411 24.39 86.2711 24.39C87.9811 24.39 88.9711 25.26 88.9711 26.52C88.9711 27.15 88.5811 27.63 87.8311 27.63H85.2811C81.9811 27.63 79.7611 29.43 79.7611 32.4C79.7611 34.98 81.7711 36.93 84.7111 36.93C86.7811 36.93 88.4611 36 88.9711 34.59V36.69H93.1111V26.97C93.1111 23.55 90.3211 21.33 86.5111 21.33ZM85.7611 33.9C84.5911 33.9 83.7511 33.21 83.7511 32.22C83.7511 31.05 84.6511 30.27 85.9111 30.27H88.9711V30.48C88.9711 32.4 87.8011 33.9 85.7611 33.9Z" fill="#1F2327"></path><path d="M95.9136 42.81H100.084V35.34C100.894 36.36 102.364 36.93 104.074 36.93C108.424 36.93 111.364 33.84 111.364 29.13C111.364 24.42 108.664 21.33 104.434 21.33C102.484 21.33 100.984 22.05 100.084 23.22V21.57H95.9136V42.81ZM103.564 33.33C101.314 33.33 99.8436 31.65 99.8436 29.13C99.8436 26.58 101.314 24.9 103.564 24.9C105.754 24.9 107.254 26.58 107.254 29.13C107.254 31.65 105.754 33.33 103.564 33.33Z" fill="#1F2327"></path><path d="M118.706 36.93C122.246 36.93 124.586 35.04 124.586 32.16C124.586 25.32 116.306 28.83 116.306 25.74C116.306 24.78 117.116 24.27 118.286 24.27C119.426 24.27 120.596 24.96 120.776 26.25H124.406C124.256 23.28 121.796 21.33 118.166 21.33C115.076 21.33 112.766 23.22 112.766 25.89C112.766 32.25 120.896 29.22 120.896 32.31C120.896 33.15 119.996 33.78 118.706 33.78C117.146 33.78 116.096 32.94 115.946 31.59H112.346C112.496 34.86 115.016 36.93 118.706 36.93Z" fill="#1F2327"></path><path d="M141.056 21.57H136.856V29.85C136.856 31.77 135.566 33.21 133.736 33.21C132.026 33.21 130.826 31.89 130.826 30.06V21.57H126.656V30.99C126.656 34.44 128.876 36.93 132.266 36.93C134.336 36.93 136.016 36.03 136.856 34.59V36.69H141.056V21.57Z" fill="#1F2327"></path><path d="M144.057 36.69H148.227V15H144.057V36.69Z" fill="#1F2327"></path><path d="M161.332 31.56C161.002 32.85 159.892 33.51 158.212 33.51C156.112 33.51 154.762 32.19 154.462 30.06H165.322C165.352 29.73 165.382 29.28 165.382 28.71C165.382 25.26 163.252 21.33 157.912 21.33C152.782 21.33 150.442 25.26 150.442 29.1C150.442 32.91 153.082 36.93 158.212 36.93C161.932 36.93 164.812 34.83 165.412 31.56H161.332ZM157.912 24.39C159.922 24.39 161.092 25.74 161.212 27.42H154.522C154.882 25.32 156.022 24.39 157.912 24.39Z" fill="#1F2327"></path></svg>