<svg xmlns="http://www.w3.org/2000/svg" width="197" height="62" viewBox="0 0 197 62" fill="none"><path d="M80.5587 44.8173C78.6219 44.8173 76.9213 44.3981 75.457 43.5596C73.9926 42.7212 72.847 41.5579 72.0204 40.0699C71.2055 38.5819 70.7981 36.8695 70.7981 34.9328C70.7981 32.8425 71.1996 31.0297 72.0027 29.4945C72.8057 27.9474 73.9217 26.7488 75.3507 25.8985C76.7796 25.0482 78.433 24.6231 80.3107 24.6231C82.2947 24.6231 83.9775 25.0895 85.3592 26.0225C86.7528 26.9436 87.7861 28.2486 88.4592 29.9373C89.1324 31.6261 89.3863 33.616 89.221 35.9071H84.9872V34.3482C84.9754 32.2697 84.6093 30.7522 83.889 29.7956C83.1686 28.8391 82.0349 28.3608 80.4878 28.3608C78.74 28.3608 77.441 28.904 76.5907 29.9905C75.7404 31.0652 75.3152 32.6417 75.3152 34.7202C75.3152 36.657 75.7404 38.1568 76.5907 39.2196C77.441 40.2825 78.681 40.8139 80.3107 40.8139C81.3617 40.8139 82.2651 40.5836 83.021 40.1231C83.7886 39.6507 84.379 38.9716 84.7924 38.0859L89.0084 39.3613C88.2762 41.0855 87.1425 42.4259 85.6072 43.3825C84.0838 44.3391 82.401 44.8173 80.5587 44.8173ZM73.969 35.9071V32.6831H87.1307V35.9071H73.969ZM101.481 44.8173C99.5093 44.8173 97.8264 44.3804 96.4329 43.5065C95.0394 42.6208 93.9706 41.4162 93.2266 39.8928C92.4944 38.3693 92.1224 36.6452 92.1106 34.7202C92.1224 32.7598 92.5062 31.0238 93.262 29.5122C94.0296 27.9888 95.1161 26.796 96.5215 25.9339C97.9268 25.06 99.5978 24.6231 101.535 24.6231C103.708 24.6231 105.544 25.1722 107.044 26.2705C108.555 27.357 109.541 28.845 110.002 30.7345L105.751 31.8859C105.42 30.8585 104.871 30.0613 104.103 29.4945C103.336 28.9158 102.462 28.6265 101.481 28.6265C100.371 28.6265 99.4561 28.8922 98.7357 29.4236C98.0154 29.9432 97.4839 30.6636 97.1415 31.5848C96.799 32.5059 96.6277 33.5511 96.6277 34.7202C96.6277 36.5389 97.0352 38.0092 97.85 39.1311C98.6649 40.253 99.8754 40.8139 101.481 40.8139C102.615 40.8139 103.507 40.5541 104.156 40.0345C104.818 39.5149 105.314 38.765 105.644 37.7848L110.002 38.7591C109.412 40.7076 108.378 42.2074 106.902 43.2585C105.426 44.2977 103.619 44.8173 101.481 44.8173ZM126.784 44.2859V35.0745C126.784 34.4722 126.743 33.805 126.66 33.0728C126.578 32.3406 126.383 31.6379 126.076 30.9648C125.781 30.2798 125.332 29.7189 124.73 29.2819C124.139 28.845 123.336 28.6265 122.32 28.6265C121.777 28.6265 121.24 28.7151 120.708 28.8922C120.177 29.0693 119.693 29.3764 119.256 29.8133C118.831 30.2385 118.488 30.829 118.228 31.5848C117.969 32.3288 117.839 33.2853 117.839 34.4545L115.306 33.3739C115.306 31.7442 115.618 30.268 116.244 28.9453C116.882 27.6227 117.815 26.5716 119.043 25.7922C120.271 25.001 121.783 24.6053 123.578 24.6053C124.995 24.6053 126.164 24.8415 127.086 25.3139C128.007 25.7863 128.739 26.3886 129.282 27.1208C129.825 27.853 130.227 28.6324 130.487 29.4591C130.746 30.2857 130.912 31.0711 130.983 31.8151C131.065 32.5472 131.107 33.1436 131.107 33.6042V44.2859H126.784ZM113.516 44.2859V18.7773H117.325V32.2048H117.839V44.2859H113.516Z" fill="white"></path><path d="M148.962 44.286V35.0746C148.962 34.4723 148.921 33.8051 148.838 33.0729C148.756 32.3407 148.561 31.638 148.254 30.9649C147.959 30.2799 147.509 29.719 146.907 29.282C146.316 28.8451 145.513 28.6266 144.498 28.6266C143.955 28.6266 143.417 28.7152 142.886 28.8923C142.354 29.0695 141.87 29.3765 141.433 29.8135C141.008 30.2386 140.666 30.8291 140.406 31.5849C140.146 32.3289 140.016 33.2855 140.016 34.4546L137.483 33.374C137.483 31.7443 137.796 30.2681 138.422 28.9455C139.06 27.6228 139.992 26.5718 141.221 25.7923C142.449 25.0011 143.96 24.6055 145.756 24.6055C147.173 24.6055 148.342 24.8417 149.264 25.314C150.185 25.7864 150.917 26.3887 151.46 27.1209C152.003 27.8531 152.405 28.6325 152.665 29.4592C152.924 30.2858 153.09 31.0712 153.161 31.8152C153.243 32.5474 153.285 33.1438 153.285 33.6043V44.286H148.962ZM135.694 44.286V25.1546H139.502V31.0889H140.016V44.286H135.694ZM166.293 44.8175C164.356 44.8175 162.656 44.3982 161.191 43.5598C159.727 42.7213 158.581 41.558 157.755 40.07C156.94 38.582 156.532 36.8697 156.532 34.9329C156.532 32.8426 156.934 31.0299 157.737 29.4946C158.54 27.9476 159.656 26.7489 161.085 25.8986C162.514 25.0483 164.167 24.6232 166.045 24.6232C168.029 24.6232 169.712 25.0897 171.093 26.0226C172.487 26.9438 173.52 28.2487 174.193 29.9375C174.867 31.6262 175.12 33.6161 174.955 35.9072H170.721V34.3483C170.71 32.2699 170.344 30.7523 169.623 29.7958C168.903 28.8392 167.769 28.3609 166.222 28.3609C164.474 28.3609 163.175 28.9041 162.325 29.9906C161.475 31.0653 161.049 32.6419 161.049 34.7203C161.049 36.6571 161.475 38.1569 162.325 39.2198C163.175 40.2826 164.415 40.814 166.045 40.814C167.096 40.814 167.999 40.5838 168.755 40.1232C169.523 39.6508 170.113 38.9718 170.527 38.086L174.743 39.3615C174.01 41.0857 172.877 42.426 171.341 43.3826C169.818 44.3392 168.135 44.8175 166.293 44.8175ZM159.703 35.9072V32.6832H172.865V35.9072H159.703ZM176.09 44.286L183.087 34.614L176.232 25.1546H181.263L185.567 31.266L189.801 25.1546H194.832L187.977 34.614L195.009 44.286H189.978L185.567 37.962L181.121 44.286H176.09Z" fill="white" fill-opacity="0.7"></path><mask id="mask0_6274_306" style="mask-type:luminance" maskUnits="userSpaceOnUse" x="0" y="8" width="42" height="52"><path d="M41.3333 8.85742H0V59.0479H41.3333V8.85742Z" fill="white"></path></mask><g mask="url(#mask0_6274_306)"><path d="M22.5814 33.9521V10.8871C22.5814 9.10477 20.3478 8.31 19.2262 9.69334L0.52625 32.7583C-0.476801 33.9955 0.401722 35.8453 1.99241 35.8453H20.6924C21.7357 35.8453 22.5814 34.9977 22.5814 33.9521Z" fill="url(#paint0_linear_6274_306)"></path><path d="M39.3932 32.0605H20.6932C19.6499 32.0605 18.8042 32.9082 18.8042 33.9538V57.0187C18.8042 58.8011 21.0376 59.5958 22.1593 58.2124L40.8592 35.1476C41.8624 33.9101 40.9838 32.0605 39.3932 32.0605Z" fill="white"></path></g><path d="M59.7403 14.7617H51.6667V45.5233H59.7403V29.8871H69.6535V23.1419H59.7403V14.7617Z" fill="#086AD8"></path><path d="M67.5063 45.5225H59.7394V53.2894H67.5063V45.5225Z" fill="#086AD8"></path><defs><linearGradient id="paint0_linear_6274_306" x1="9.35795" y1="12.181" x2="25.469" y2="42.4426" gradientUnits="userSpaceOnUse"><stop stop-color="white" stop-opacity="0.36"></stop><stop offset="1" stop-color="#B0C4DB" stop-opacity="0.18"></stop></linearGradient></defs></svg>