<svg xmlns="http://www.w3.org/2000/svg" width="20" height="18" viewBox="0 0 20 18" fill="none"><path fill-rule="evenodd" clip-rule="evenodd" d="M13.451 0.248959C13.1191 -0.0829864 12.5809 -0.0829864 12.249 0.248959C11.917 0.580905 11.917 1.1191 12.249 1.45104L16.7979 6H5.85C4.29848 6 2.81051 6.61634 1.71343 7.71343C0.616337 8.81051 0 10.2985 0 11.85C0 13.4015 0.616337 14.8895 1.71343 15.9866C2.81051 17.0837 4.29848 17.7 5.85 17.7H12.85C13.3194 17.7 13.7 17.3194 13.7 16.85C13.7 16.3806 13.3194 16 12.85 16H5.85C4.74935 16 3.69378 15.5628 2.91551 14.7845C2.13723 14.0062 1.7 12.9506 1.7 11.85C1.7 10.7494 2.13723 9.69378 2.91551 8.91551C3.69378 8.13723 4.74935 7.7 5.85 7.7H16.7979L12.249 12.249C11.917 12.5809 11.917 13.1191 12.249 13.451C12.5809 13.783 13.1191 13.783 13.451 13.451L19.451 7.45104C19.783 7.11909 19.783 6.5809 19.451 6.24896L13.451 0.248959Z" fill="#086AD8"></path></svg>