<svg xmlns="http://www.w3.org/2000/svg" width="350" height="179" viewBox="0 0 350 179" fill="none"><path d="M51.4987 138.558C36.9381 138.558 24.983 134.116 15.6335 125.231C5.21118 115.733 0 102.712 0 86.1682C0 73.3004 2.75886 61.7347 8.27658 51.4711C9.04294 37.531 13.8709 25.659 22.7606 15.8549C32.4166 5.28498 44.6016 0 59.3155 0C75.5621 0 89.2032 6.2807 100.239 18.8421C110.968 30.9439 116.332 46.0329 116.332 64.1091C116.332 87.5468 109.588 106.083 96.1003 119.716C83.992 132.278 69.1248 138.558 51.4987 138.558ZM44.1418 130.516C59.9286 130.516 73.8762 124.542 85.9845 112.593C99.6256 99.2657 106.446 82.2619 106.446 61.5815C106.446 45.1904 102.461 31.5567 94.491 20.6804C85.7546 9.19127 74.0295 3.44672 59.3155 3.44672C48.7399 3.44672 39.6203 6.81686 31.9568 13.5571C25.3662 19.3783 20.3849 28.11 17.013 39.7522C20.5382 36.3821 23.8335 33.8545 26.8989 32.1694C30.1176 30.3312 33.4895 29.0291 37.0147 28.2632L37.4745 28.0334C38.5474 28.0334 39.0839 28.6461 39.0839 29.8716C39.0839 30.6376 38.7007 31.1737 37.9343 31.4801C29.198 33.7779 21.841 38.6799 15.8635 46.1861L15.6335 49.4031V52.1605C15.6335 60.8922 17.3962 68.6282 20.9214 75.3684C24.5998 82.7214 30.0409 88.2362 37.2446 91.9127C44.4483 95.5892 51.7287 97.4275 59.0856 97.4275C70.1211 97.4275 78.6276 93.9807 84.6051 87.0873C87.6705 83.7172 89.2032 79.8109 89.2032 75.3684C89.2032 72.4579 88.4368 70.0068 86.9041 68.0154C85.3714 65.7176 83.2257 64.4921 80.4668 64.3389C79.3939 64.3389 78.8575 63.8027 78.8575 62.7304C78.8575 61.5049 79.4705 60.8922 80.6967 60.8922C84.5284 61.0454 87.5939 62.6538 89.8929 65.7176C92.192 68.6282 93.3415 72.2281 93.3415 76.5173C93.3415 80.5002 92.1153 84.4831 89.663 88.466C86.9041 92.9084 82.9191 96.5849 77.7079 99.4955C72.0369 102.559 65.6762 104.091 58.6258 104.091C50.5025 104.091 42.6857 102.176 35.1755 98.3466C27.6653 94.5169 21.6877 89.5383 17.2429 83.4108C12.9513 77.1301 10.0392 69.0877 8.50649 59.2837C6.66725 64.6453 5.36445 69.4707 4.5981 73.7599C3.83175 77.896 3.44858 82.0321 3.44858 86.1682C3.44858 100.415 7.51023 111.597 15.6335 119.716C22.8372 126.916 32.34 130.516 44.1418 130.516Z" fill="#1F2327"></path><path d="M147.967 120.635C141.99 120.635 136.932 119.027 132.794 115.81C128.349 112.287 126.126 107.844 126.126 102.483C126.126 97.4275 127.199 93.1382 129.345 89.6149C131.337 86.3979 134.326 84.1767 138.311 82.9512C137.698 81.2662 137.392 79.8109 137.392 78.5854C137.392 75.828 138.465 73.1472 140.61 70.543C142.909 68.092 145.745 66.4069 149.117 65.4878C149.883 65.3346 150.65 65.258 151.416 65.258C152.182 65.1048 152.949 65.0282 153.715 65.0282C159.846 65.0282 165.21 67.7856 169.808 73.3004C174.253 78.662 176.476 84.7129 176.476 91.4531C176.476 99.4189 173.64 106.312 167.969 112.133C162.451 117.801 155.784 120.635 147.967 120.635ZM147.967 117.189C153.945 117.036 159.079 114.431 163.371 109.376C167.509 104.474 169.578 98.8828 169.578 92.6021C169.578 87.0873 168.276 82.4151 165.67 78.5854C162.758 74.2961 158.926 72.1515 154.175 72.1515C150.803 72.1515 147.967 73.3004 145.668 75.5982C143.216 78.0492 141.99 81.3427 141.99 85.4788C141.99 87.6234 142.603 89.5383 143.829 91.2234C145.208 93.5212 147.048 94.6701 149.347 94.6701H149.807C151.493 94.6701 153.332 93.751 155.324 91.9127L155.784 91.6829L156.014 91.9127C156.014 92.3723 155.861 92.7552 155.554 93.0616C153.255 96.1254 150.726 97.6572 147.967 97.6572C143.522 97.6572 139.921 94.5169 137.162 88.2362C133.637 90.534 131.874 94.2871 131.874 99.4955C131.874 104.091 133.177 108.074 135.782 111.444C138.694 115.274 142.756 117.189 147.967 117.189Z" fill="#1F2327"></path><path d="M191.119 179C190.506 179 190.123 178.923 189.97 178.77C184.146 178.004 181.233 172.336 181.233 161.766C181.233 159.622 181.387 157.247 181.693 154.643C182 152.192 182.383 149.511 182.843 146.601C184.222 138.482 185.985 130.21 188.131 121.784C190.43 113.206 193.112 104.627 196.177 96.0488C194.645 92.3723 193.112 89.0021 191.579 85.9384C190.2 82.7214 188.667 79.8875 186.981 77.4364C186.215 76.2109 185.832 75.2152 185.832 74.4493C185.832 73.377 186.368 72.3047 187.441 71.2323C188.667 70.3132 189.663 69.8537 190.43 69.8537H190.66C190.66 70.0068 190.736 70.0834 190.889 70.0834H191.119C192.805 72.0749 194.338 74.3727 195.718 76.9769C197.25 79.5811 198.783 82.8746 200.316 86.8575C204.607 80.5768 208.899 76.0578 213.19 73.3004C217.635 70.3898 222.31 68.9345 227.215 68.9345C233.958 68.9345 238.71 70.8494 241.469 74.6791C244.381 78.5088 245.837 83.6406 245.837 90.0744C245.837 93.2914 245.377 96.8913 244.457 100.874C242.925 108.38 240.013 114.278 235.721 118.567C232.196 122.091 228.134 123.852 223.536 123.852C220.164 123.852 217.482 122.857 215.489 120.865C213.19 118.721 212.041 115.887 212.041 112.363C212.041 111.597 212.501 111.214 213.42 111.214C214.34 111.214 214.8 111.597 214.8 112.363C215.259 117.725 218.018 120.406 223.076 120.406C226.755 120.406 229.973 118.644 232.732 115.121C236.257 110.525 238.02 104.244 238.02 96.2786C238.02 90.4574 236.947 85.9384 234.801 82.7214C232.349 78.8917 229.13 76.9769 225.145 76.9769C217.635 76.9769 210.202 82.8746 202.845 94.6701C204.531 100.798 205.833 107.002 206.753 113.282C207.673 119.41 208.132 125.844 208.132 132.584C208.132 136.107 207.979 139.478 207.673 142.694C207.366 146.065 206.983 149.282 206.523 152.345C205.45 158.013 203.841 163.298 201.695 168.2C198.476 175.4 194.951 179 191.119 179ZM190.43 176.472H190.889C192.575 176.472 194.108 175.63 195.488 173.945C196.867 171.8 198.17 168.736 199.396 164.754C201.082 159.852 202.231 154.95 202.845 150.048C203.151 147.903 203.381 145.758 203.534 143.614C203.688 141.622 203.764 139.554 203.764 137.41C203.764 126.84 202.002 115.274 198.476 102.712C195.411 109.606 192.882 116.653 190.889 123.852C189.05 131.052 187.518 138.788 186.291 147.06C185.832 150.737 185.448 153.954 185.142 156.711C184.835 159.469 184.682 161.69 184.682 163.375C184.682 167.205 185.065 170.268 185.832 172.566C186.751 174.864 188.284 176.166 190.43 176.472Z" fill="#1F2327"></path><path d="M267.665 134.422C263.68 134.422 260.385 133.197 257.779 130.746C255.327 128.295 254.101 125.078 254.101 121.095C254.101 117.112 255.097 113.589 257.09 110.525C259.235 107.461 262.071 105.929 265.596 105.929C266.822 105.929 267.435 106.466 267.435 107.538C267.435 108.304 266.669 108.687 265.136 108.687C262.99 108.687 261.228 109.989 259.848 112.593C258.469 115.197 257.779 117.495 257.779 119.487C257.779 122.091 258.776 124.159 260.768 125.691C262.761 127.376 264.983 128.218 267.435 128.218C272.493 128.218 276.018 126.61 278.011 123.393C280.003 120.023 281 116.04 281 111.444C281 108.993 280.77 106.542 280.31 104.091C280.003 101.64 279.467 99.1891 278.701 96.7381C278.241 94.8999 277.321 92.7552 275.942 90.3042C274.562 87.7 273.03 85.1724 271.344 82.7214C269.811 80.2704 268.432 78.4322 267.205 77.2067C265.366 81.6491 263.45 86.1682 261.458 90.7638C259.619 95.2062 257.626 99.4189 255.48 103.402C255.327 103.861 254.944 104.091 254.331 104.091C253.105 104.091 252.721 103.478 253.181 102.253C253.794 101.181 254.331 100.108 254.791 99.0359C255.404 97.8104 256.093 96.3551 256.86 94.6701L261.918 83.8703C262.684 82.1853 263.374 80.5002 263.987 78.8151C264.753 77.1301 265.443 75.5216 266.056 73.9897C263.604 70.926 262.377 67.0963 262.377 62.5006C262.377 60.5092 262.761 58.8241 263.527 57.4454C264.447 55.9136 265.903 55.1476 267.895 55.1476C268.968 55.1476 270.041 55.837 271.114 57.2157C272.34 58.7475 272.723 61.2751 272.263 64.7984C272.11 65.5644 271.727 66.9431 271.114 68.9345C270.654 70.7728 270.271 72.0749 269.964 72.8408C269.964 73.4536 270.577 74.7557 271.804 76.7471C273.183 78.5854 274.639 80.5002 276.172 82.4917C277.704 84.4831 278.777 85.8618 279.39 86.6277C281.996 90.151 284.142 94.2871 285.828 99.0359C287.514 103.632 288.357 108.151 288.357 112.593C288.357 118.261 286.824 123.316 283.759 127.759C280.693 132.201 275.329 134.422 267.665 134.422Z" fill="#1F2327"></path><path d="M317.583 99.4955C316.357 99.4955 315.744 98.9593 315.744 97.887C315.744 97.4275 315.821 97.1211 315.974 96.9679C317.047 95.2828 318.196 93.0616 319.423 90.3042C320.649 87.3937 322.028 83.9469 323.561 79.9641C325.094 75.9812 326.703 71.4621 328.389 66.4069C330.228 61.3517 332.221 55.6838 334.366 49.4031L339.194 34.9268C341.034 28.9525 341.953 23.8207 341.953 19.5315L341.723 15.3954L341.493 14.9358C341.493 13.5571 342.337 12.8678 344.022 12.8678C346.628 12.8678 348.237 14.0933 348.85 16.5443C349.617 18.8421 350 21.3697 350 24.1271C350 30.561 347.164 40.2118 341.493 53.0796C339.348 57.8284 336.436 63.9559 332.757 71.4621C329.079 78.9683 324.481 88.0064 318.963 98.5764C318.81 99.1891 318.35 99.4955 317.583 99.4955ZM310.686 119.257C308.847 119.257 307.238 118.644 305.858 117.418C304.632 116.04 304.019 114.508 304.019 112.823C304.019 111.138 304.632 109.682 305.858 108.457C307.238 107.078 308.77 106.389 310.456 106.389C312.296 106.389 313.828 107.078 315.054 108.457C316.434 109.682 317.124 111.138 317.124 112.823C317.124 114.508 316.434 116.04 315.054 117.418C313.828 118.644 312.372 119.257 310.686 119.257Z" fill="#1F2327"></path></svg>