<svg xmlns="http://www.w3.org/2000/svg" width="32" height="32" viewBox="0 0 32 32" fill="none"><path d="M15.9999 7.41357H29.3332" stroke="white" stroke-width="1.5" stroke-miterlimit="10" stroke-linecap="round" stroke-linejoin="round"></path><path d="M18.9599 2.6665H26.3732C28.7465 2.6665 29.3332 3.25317 29.3332 5.59984V11.0798C29.3332 13.4265 28.7465 14.0132 26.3732 14.0132H18.9599C16.5865 14.0132 15.9999 13.4265 15.9999 11.0798V5.59984C15.9999 3.25317 16.5865 2.6665 18.9599 2.6665Z" stroke="white" stroke-width="1.5" stroke-linecap="round" stroke-linejoin="round"></path><path d="M2.6665 22.7466H15.9998" stroke="white" stroke-width="1.5" stroke-miterlimit="10" stroke-linecap="round" stroke-linejoin="round"></path><path d="M5.62651 18H13.0398C15.4132 18 15.9998 18.5867 15.9998 20.9333V26.4133C15.9998 28.76 15.4132 29.3467 13.0398 29.3467H5.62651C3.25317 29.3467 2.6665 28.76 2.6665 26.4133V20.9333C2.6665 18.5867 3.25317 18 5.62651 18Z" stroke="white" stroke-width="1.5" stroke-linecap="round" stroke-linejoin="round"></path><path d="M29.3332 20C29.3332 25.16 25.1599 29.3333 19.9999 29.3333L21.3999 27" stroke="white" stroke-width="1.5" stroke-linecap="round" stroke-linejoin="round"></path><path d="M2.6665 11.9998C2.6665 6.83984 6.83984 2.6665 11.9998 2.6665L10.5999 4.99984" stroke="white" stroke-width="1.5" stroke-linecap="round" stroke-linejoin="round"></path></svg>