<svg xmlns="http://www.w3.org/2000/svg" width="52" height="52" viewBox="0 0 52 52" fill="none"><g style="mix-blend-mode:multiply"><path fill-rule="evenodd" clip-rule="evenodd" d="M35.0957 51.8247C36.5975 51.1775 38.9413 49.7559 40.6372 48.4636C42.6664 46.9175 45.4542 43.9686 46.8426 41.8999C49.3364 38.1843 50.6409 34.4051 51.3906 28.7244C51.8947 24.9045 51.9306 23.9347 51.9771 12.8473C52.0265 1.05553 52.0716 1.79568 51.2474 0.861423C50.452 -0.0402528 50.9226 0.000274564 41.2349 0.000273717C31.8783 0.000272899 32.2059 -0.0213678 31.4329 0.647059C31.2354 0.817679 30.9505 1.19529 30.7996 1.4861L30.5254 2.01499L30.4979 12.0615L30.4703 22.1081L30.6897 22.6864C30.9474 23.3653 31.6546 24.1219 32.1887 24.2901C32.4077 24.3589 34.2323 24.4061 36.6953 24.4065L40.834 24.4072L40.834 25.1311C40.834 26.7794 40.4194 29.5766 39.9004 31.4299C39.2105 33.8939 38.1578 35.8805 36.633 37.5962C35.3889 38.9961 33.9484 40.1077 31.9233 41.2309C30.4425 42.0521 30.2204 42.2559 29.8136 43.1667C29.7058 43.4078 29.634 43.8377 29.6304 44.2627C29.6254 44.8778 29.693 45.1276 30.1932 46.3412C32.0967 50.959 32.2524 51.252 33.0475 51.7118C33.6306 52.049 34.4678 52.0951 35.0957 51.8247ZM5.06253 51.909C5.62539 51.7913 8.272 50.3232 9.70515 49.3338C14.053 46.3321 17.4469 42.3106 19.433 37.8071C20.8852 34.5142 21.6046 31.1877 22.1112 25.4214C22.2459 23.8891 22.2844 21.598 22.3208 12.9633C22.3711 1.04217 22.4166 1.79706 21.5912 0.861421C20.7959 -0.0401372 21.2658 0.000271971 11.5841 0.000271125C2.14719 0.0002703 2.47798 -0.0229879 1.71058 0.694023C1.50928 0.882141 1.22623 1.30535 1.0815 1.63449L0.818455 2.23292L0.820686 12.1975C0.822921 21.9734 0.826884 22.172 1.0298 22.6803C1.26756 23.2758 1.63024 23.7397 2.13876 24.0986C2.486 24.3439 2.59508 24.351 6.85998 24.4072L11.2257 24.4647L11.1948 25.3858C11.1146 27.7646 10.608 30.5957 9.90442 32.5957C9.18099 34.6521 8.31456 36.1521 6.99973 37.6243C5.80313 38.9642 4.58143 39.9189 2.66374 41.0126C0.825356 42.0611 0.311551 42.5443 0.103448 43.4202C-0.142841 44.4569 -0.0131372 44.9792 1.19901 47.8355C1.87551 49.4296 2.47584 50.6847 2.70741 50.9891C3.29565 51.7624 4.15649 52.0987 5.06253 51.909Z" fill="#086AD8"></path></g></svg>