<svg xmlns="http://www.w3.org/2000/svg" width="32" height="32" viewBox="0 0 32 32" fill="none"><path d="M14 30.6667H6C3.42667 30.6667 1.33333 28.5733 1.33333 26V16.6667C1.33333 14.0933 3.42667 12 6 12H19.3333C20.1533 12 20.96 12.216 21.6667 12.624C21.9853 12.8093 22.3933 12.6987 22.5773 12.3813C22.7627 12.0627 22.6533 11.6547 22.3347 11.4707C22.016 11.2867 21.6787 11.1453 21.3347 11.0227V8.66667C21.3347 3.888 17.4467 0 12.668 0C7.88933 0 4 3.888 4 8.66667V11.0347C1.67733 11.8627 0 14.0627 0 16.6667V26C0 29.308 2.692 32 6 32H14C14.368 32 14.6667 31.7013 14.6667 31.3333C14.6667 30.9653 14.368 30.6667 14 30.6667ZM5.33333 8.66667C5.33333 4.62267 8.62267 1.33333 12.6667 1.33333C16.7107 1.33333 20 4.62267 20 8.66667V10.7107C19.7787 10.6867 19.5573 10.6667 19.3333 10.6667H6C5.772 10.6667 5.55467 10.7093 5.33333 10.7347V8.66667ZM12.6667 20C13.0347 20 13.3333 20.2987 13.3333 20.6667V23.3333C13.3333 23.7013 13.0347 24 12.6667 24C12.2987 24 12 23.7013 12 23.3333V20.6667C12 20.2987 12.2987 20 12.6667 20ZM23.3333 14.6667C18.5547 14.6667 14.6667 18.5547 14.6667 23.3333C14.6667 28.112 18.5547 32 23.3333 32C28.112 32 32 28.112 32 23.3333C32 18.5547 28.112 14.6667 23.3333 14.6667ZM23.3333 30.6667C19.2893 30.6667 16 27.376 16 23.3333C16 19.2907 19.2893 16 23.3333 16C27.3773 16 30.6667 19.2907 30.6667 23.3333C30.6667 27.376 27.3773 30.6667 23.3333 30.6667ZM27.8 21.524C28.056 21.788 28.0493 22.2107 27.784 22.4667L24.18 25.952C23.7 26.4253 23.0667 26.6627 22.432 26.6627C21.7973 26.6627 21.1667 26.4267 20.6827 25.9547L18.864 24.1587C18.6013 23.9013 18.5987 23.4787 18.8573 23.216C19.116 22.956 19.5387 22.952 19.8 23.2107L21.6173 25.004C22.0667 25.444 22.7987 25.4387 23.248 24.9987L26.856 21.508C27.1227 21.2533 27.5453 21.2587 27.8 21.524Z" fill="#5B43C4"></path></svg>