<svg xmlns="http://www.w3.org/2000/svg" width="32" height="32" viewBox="0 0 32 32" fill="none"><path d="M28 32H4C2.93913 32 1.92172 31.479 1.17157 30.5517C0.421427 29.6243 0 28.3666 0 27.0551L0 0L8 9.88977L16 0L24 9.88977L32 0V27.0551C32 28.3666 31.5786 29.6243 30.8284 30.5517C30.0783 31.479 29.0609 32 28 32ZM2.66667 7.95797V27.0551C2.66667 27.4923 2.80714 27.9115 3.05719 28.2206C3.30724 28.5297 3.64638 28.7034 4 28.7034H28C28.3536 28.7034 28.6928 28.5297 28.9428 28.2206C29.1929 27.9115 29.3333 27.4923 29.3333 27.0551V7.95797L24 14.5511L16 4.66138L8 14.5511L2.66667 7.95797Z" fill="#5B43C4"></path></svg>