<svg xmlns="http://www.w3.org/2000/svg" width="60" height="60" viewBox="0 0 60 60" fill="none"><path d="M7.63989 6.20675L9.70885 4.13779H17.9844L20.0534 6.20675H7.63989Z" fill="#086AD8"></path><path d="M3.50157 10.3451L5.57053 8.27611H22.1227L24.1917 10.3451H3.50157Z" fill="#086AD8"></path><path d="M0.637188 14.4829L0.000488281 13.8462L1.43275 12.4139H26.2605L28.3295 14.4829H0.637188Z" fill="#086AD8"></path><path d="M4.77497 18.6206L2.70601 16.5517H57.295L55.226 18.6206H4.77497Z" fill="#086AD8"></path><path d="M8.91275 22.7584L6.84379 20.6895H53.1572L51.0882 22.7584H8.91275Z" fill="#086AD8"></path><path d="M13.0511 26.8967L10.9821 24.8278H49.0189L46.9499 26.8967H13.0511Z" fill="#086AD8"></path><path d="M15.1198 31.0345L16.1543 30L15.1199 28.9656H44.8811L43.8466 30L44.8811 31.0345H15.1198Z" fill="#086AD8"></path><path d="M10.982 35.1723L13.051 33.1034H46.95L49.0189 35.1723H10.982Z" fill="#086AD8"></path><path d="M6.84426 39.3101L8.91322 37.2411H51.0877L53.1567 39.3101H6.84426Z" fill="#086AD8"></path><path d="M2.70594 43.4484L4.77491 41.3795H55.2261L57.295 43.4484H2.70594Z" fill="#086AD8"></path><path d="M1.43288 47.5862L0.000520979 46.1539L0.637123 45.5172H28.3294L26.2605 47.5862H1.43288Z" fill="#086AD8"></path><path d="M5.57067 51.724L3.5017 49.655H24.1916L22.1227 51.724H5.57067Z" fill="#086AD8"></path><path d="M9.70899 55.8623L7.64003 53.7934H20.0533L17.9843 55.8623H9.70899Z" fill="#086AD8"></path><path d="M52.3609 53.7934L50.292 55.8623H42.0166L39.9477 53.7934H52.3609Z" fill="#086AD8"></path><path d="M56.4993 49.655L54.4303 51.724H37.8783L35.8093 49.655H56.4993Z" fill="#086AD8"></path><path d="M59.3639 45.5172L60.0005 46.1539L58.5681 47.5862H33.7405L31.6716 45.5172H59.3639Z" fill="#086AD8"></path><path d="M44.0854 57.9311H48.2232L46.1543 60L44.0854 57.9311Z" fill="#086AD8"></path><path d="M15.9155 57.9311L13.8467 60L11.7778 57.9311H15.9155Z" fill="#086AD8"></path><path d="M58.5682 12.4139L60.0005 13.8462L59.3638 14.4829H31.6715L33.7405 12.4139H58.5682Z" fill="#086AD8"></path><path d="M54.4304 8.27611L56.4994 10.3451H35.8093L37.8782 8.27611H54.4304Z" fill="#086AD8"></path><path d="M50.2921 4.13779L52.3611 6.20675H39.9476L42.0166 4.13779H50.2921Z" fill="#086AD8"></path><path d="M46.1543 0L48.2233 2.06897H44.0854L46.1543 0Z" fill="#086AD8"></path><path d="M13.8466 0L11.7777 2.06897H15.9156L13.8466 0Z" fill="#086AD8"></path></svg>